<svg width="90" height="36" viewBox="0 0 90 36" fill="none" xmlns="http://www.w3.org/2000/svg">
<g opacity="0.5" clip-path="url(#clip0_2124_1836)">
<path fill-rule="evenodd" clip-rule="evenodd" d="M77.6339 12.0255L81.2097 22.0026H74.1107L77.6339 12.0255ZM84.0495 29.4335H89.2557L77.6339 -0.0820312L66.065 29.4335H71.3234L72.5328 26.1079H82.7871L84.0495 29.4335ZM51.919 24.7566V5.4261C51.919 5.4261 63.9614 3.60741 63.9614 15.0914C63.9614 26.4197 51.919 24.7566 51.919 24.7566ZM47.0287 0.74977V29.4335H51.9193C59.1237 29.4335 68.8521 27.3551 68.8521 15.0914C68.8524 2.35971 58.9657 0.74977 51.919 0.74977H47.0287ZM30.7269 5.52994H34.6183C34.6183 5.52994 39.4563 5.52994 39.4563 9.11554C39.4563 11.9217 36.5115 12.5452 35.2494 12.7011L30.7269 5.52994ZM45.8192 29.4335L37.9311 16.9621C40.7181 16.184 44.294 14.208 44.294 9.11554C44.294 0.749233 34.6181 0.749233 34.6181 0.749233H24.9424V5.52994L29.5175 12.7009H24.9424V29.4335H29.7804V17.4819H32.5674L40.1398 29.4335H45.8192ZM12.3743 12.0255L15.8975 22.0026H8.85082L12.3743 12.0255ZM18.7372 29.4335H23.9944L12.3743 -0.0820312L0.805176 29.4335H6.01136L7.27319 26.1079H17.4748L18.7372 29.4335Z" fill="white"/>
<path d="M2.5129 34.6694H1.47482L1.25759 35.2865H0.773438L1.78573 32.6382H2.20362L3.21809 35.2862H2.73203L2.5129 34.6694ZM1.60543 34.2985H2.38229L1.994 33.1998L1.60543 34.2985ZM4.63578 34.9693C4.73743 34.9729 4.83671 34.9385 4.91383 34.873C4.94912 34.8435 4.97782 34.8071 4.99811 34.7661C5.0184 34.7251 5.02983 34.6804 5.03168 34.6347H5.45311C5.44809 34.7576 5.40788 34.8765 5.33716 34.9777C5.26277 35.0853 5.16134 35.1719 5.04281 35.2291C4.91839 35.2911 4.78082 35.3229 4.64148 35.3219C4.51793 35.3276 4.39463 35.3065 4.28019 35.2601C4.16574 35.2138 4.06293 35.1433 3.97893 35.0536C3.80587 34.8469 3.71854 34.583 3.73455 34.3152V34.2712C3.72133 34.0097 3.80808 33.753 3.97757 33.5518C4.06108 33.4613 4.16376 33.3902 4.27829 33.3435C4.39282 33.2968 4.51637 33.2757 4.64013 33.2816C4.85269 33.2729 5.06033 33.3463 5.21904 33.4863C5.29331 33.5551 5.35246 33.6382 5.39282 33.7305C5.43318 33.8229 5.45389 33.9224 5.45365 34.023H5.03168C5.03045 33.9188 4.98863 33.8192 4.91492 33.7447C4.87851 33.7086 4.83496 33.6802 4.78698 33.6615C4.73901 33.6427 4.68763 33.6338 4.63605 33.6355C4.57157 33.6323 4.50728 33.6448 4.44885 33.672C4.39041 33.6991 4.33963 33.74 4.30098 33.7911C4.21204 33.9322 4.17015 34.0973 4.18123 34.2631V34.334C4.16901 34.5012 4.20982 34.668 4.29799 34.8113C4.3366 34.8634 4.38772 34.9051 4.44675 34.9327C4.50577 34.9604 4.57083 34.973 4.63605 34.9696L4.63578 34.9693ZM6.94846 34.9693C7.05011 34.9729 7.14939 34.9385 7.22652 34.873C7.2618 34.8435 7.2905 34.8071 7.31079 34.7661C7.33108 34.7251 7.34251 34.6804 7.34436 34.6347H7.76579C7.76077 34.7576 7.72056 34.8765 7.64984 34.9777C7.57538 35.0853 7.47385 35.172 7.35522 35.2291C7.2308 35.2911 7.09323 35.3229 6.95389 35.3219C6.83034 35.3276 6.70704 35.3065 6.5926 35.2601C6.47815 35.2138 6.37534 35.1433 6.29134 35.0536C6.11828 34.8469 6.03095 34.583 6.04696 34.3152V34.2712C6.03374 34.0097 6.12049 33.753 6.28998 33.5518C6.37349 33.4613 6.47617 33.3902 6.5907 33.3435C6.70523 33.2968 6.82878 33.2757 6.95254 33.2816C7.16482 33.2726 7.37233 33.3455 7.53118 33.485C7.60545 33.5537 7.6646 33.6369 7.70496 33.7292C7.74532 33.8215 7.76603 33.9211 7.76579 34.0216H7.34436C7.34313 33.9175 7.30131 33.8178 7.2276 33.7434C7.19119 33.7072 7.14764 33.6789 7.09966 33.6601C7.05169 33.6413 7.00031 33.6325 6.94873 33.6342C6.88425 33.631 6.81996 33.6435 6.76153 33.6706C6.7031 33.6978 6.65231 33.7387 6.61366 33.7898C6.52444 33.9312 6.48255 34.0968 6.49391 34.2631V34.334C6.48169 34.5012 6.5225 34.668 6.61067 34.8113C6.64925 34.8633 6.70034 34.905 6.75931 34.9327C6.81828 34.9603 6.88328 34.9727 6.94846 34.9693ZM8.3591 34.2835C8.35627 34.1033 8.39597 33.9249 8.47504 33.7624C8.54605 33.6146 8.65934 33.4907 8.80089 33.4058C8.94694 33.3212 9.11384 33.2781 9.28314 33.2813C9.40429 33.2766 9.5251 33.297 9.63781 33.3412C9.75051 33.3853 9.85261 33.4523 9.93754 33.5378C10.111 33.723 10.2079 33.9657 10.2091 34.218L10.211 34.3216C10.2141 34.5013 10.1754 34.6794 10.0977 34.8419C10.0275 34.9892 9.91479 35.1126 9.7738 35.1969C9.62638 35.2824 9.45785 35.3259 9.28694 35.3225C9.16078 35.3277 9.03499 35.3056 8.91841 35.2577C8.80183 35.2098 8.69729 35.1372 8.61217 35.045C8.43589 34.8392 8.34542 34.5748 8.3591 34.3055V34.2835ZM8.80632 34.3216C8.79657 34.4895 8.84107 34.6561 8.9334 34.7974C8.97311 34.8528 9.02619 34.8975 9.08783 34.9276C9.14947 34.9576 9.21772 34.972 9.2864 34.9693C9.3554 34.9722 9.42399 34.9576 9.48574 34.9271C9.54749 34.8965 9.60037 34.851 9.63939 34.7947C9.73314 34.6415 9.77711 34.4635 9.76539 34.2849C9.77449 34.1175 9.72899 33.9517 9.63559 33.8118C9.5961 33.756 9.54314 33.7108 9.4815 33.6802C9.41986 33.6497 9.35149 33.6349 9.28259 33.6371C9.21475 33.6351 9.14746 33.6498 9.08676 33.6798C9.02605 33.7098 8.97383 33.7543 8.93476 33.8091C8.83842 33.9625 8.79348 34.142 8.80632 34.3222V34.3216ZM10.9458 33.3175H11.393V34.9339H12.1698V33.3186H12.6171V34.9339H12.8886L12.8506 35.8701H12.4433V35.2862H10.946L10.9458 33.3175ZM14.7842 33.3175H15.2298V35.2862H14.7845V33.9728L14.0041 35.2862H13.5585V33.3181H14.0041V34.6313L14.7842 33.3175ZM17.2351 35.2862C17.2093 35.2277 17.1919 35.1658 17.1835 35.1024C17.1169 35.1734 17.036 35.2296 16.9459 35.2675C16.8558 35.3054 16.7587 35.3242 16.6608 35.3225C16.482 35.3296 16.3072 35.2692 16.172 35.1534C16.1113 35.1017 16.0628 35.0374 16.0299 34.9651C15.9971 34.8929 15.9807 34.8143 15.982 34.7351C15.9771 34.6415 15.9962 34.5483 16.0374 34.4639C16.0785 34.3795 16.1405 34.3066 16.2177 34.2521C16.42 34.128 16.6564 34.0692 16.8941 34.0839H17.168V33.9545C17.1725 33.8649 17.1414 33.7772 17.0814 33.7098C17.0465 33.6772 17.0051 33.6521 16.9597 33.6363C16.9144 33.6205 16.8662 33.6143 16.8183 33.6181C16.7286 33.6143 16.6403 33.6409 16.5679 33.6935C16.5374 33.7154 16.5125 33.7443 16.4956 33.7777C16.4786 33.8111 16.47 33.848 16.4705 33.8853H16.024C16.0248 33.7752 16.0631 33.6684 16.1327 33.5824C16.21 33.4846 16.3119 33.4084 16.4281 33.3613C16.5599 33.3063 16.7018 33.2789 16.8449 33.2808C17.0459 33.2704 17.2439 33.3321 17.4026 33.4544C17.4727 33.515 17.5282 33.5903 17.5651 33.6748C17.602 33.7593 17.6194 33.8508 17.6161 33.9427V34.8304C17.6097 34.9759 17.6355 35.1211 17.6916 35.2559V35.2868L17.2351 35.2862ZM16.7436 34.968C16.8309 34.9683 16.9169 34.9464 16.9932 34.9044C17.0673 34.8656 17.1284 34.8062 17.1688 34.7335V34.3621H16.9277C16.7973 34.3534 16.6673 34.3832 16.5541 34.4477C16.514 34.474 16.4814 34.51 16.4595 34.5523C16.4376 34.5946 16.427 34.6417 16.4289 34.6892C16.4272 34.7272 16.434 34.765 16.4488 34.8001C16.4635 34.8351 16.486 34.8665 16.5144 34.8921C16.5785 34.9449 16.6603 34.9719 16.7436 34.9677V34.968ZM18.4415 33.3181H18.8888V34.9339H19.6662V33.3186H20.1134V34.9339H20.3849L20.348 35.8706H19.9407V35.2862H18.4415V33.3181ZM22.28 33.3181H22.7256V35.2862H22.28V33.9728L21.4996 35.2862H21.054V33.3181H21.4996V34.6313L22.28 33.3181ZM25.1355 33.3181V35.2862H24.6896V34.5639H24.2723L23.8478 35.2862H23.3832L23.8527 34.4912C23.7389 34.4474 23.6407 34.3715 23.5701 34.273C23.504 34.1772 23.4696 34.0635 23.4715 33.9476C23.4696 33.8612 23.488 33.7757 23.5252 33.6975C23.5624 33.6194 23.6175 33.5509 23.686 33.4973C23.852 33.3728 24.0567 33.3094 24.2649 33.3181H25.1355ZM23.919 33.9583C23.9179 33.9966 23.9257 34.0346 23.9418 34.0695C23.9579 34.1043 23.9818 34.135 24.0119 34.1593C24.0793 34.2125 24.164 34.2399 24.2503 34.2363H24.6896V33.6691H24.278C24.1836 33.6642 24.0907 33.6933 24.0165 33.7509C23.9853 33.7758 23.9603 33.8075 23.9434 33.8435C23.9265 33.8794 23.9182 33.9187 23.919 33.9583ZM29.0361 34.302V35.2862H28.5704V32.6379H29.5957C29.8544 32.6242 30.1088 32.7066 30.3091 32.8689C30.3962 32.9451 30.465 33.0395 30.5107 33.1452C30.5564 33.2509 30.5778 33.3653 30.5733 33.4802C30.5794 33.5939 30.5594 33.7075 30.5146 33.8124C30.4698 33.9173 30.4015 34.0108 30.3148 34.0858C30.1073 34.2413 29.8502 34.3181 29.5903 34.3023L29.0361 34.302ZM29.0361 33.9328H29.5957C29.7326 33.9424 29.8681 33.9013 29.9759 33.8174C30.0209 33.7745 30.056 33.7225 30.0785 33.6648C30.1011 33.6071 30.1106 33.5453 30.1065 33.4836C30.1095 33.4205 30.0993 33.3575 30.0765 33.2985C30.0537 33.2395 30.0188 33.1858 29.974 33.1407C29.8748 33.0511 29.7439 33.0038 29.6096 33.009H29.0372L29.0361 33.9328ZM31.1921 34.2838C31.1893 34.1035 31.229 33.9251 31.3081 33.7627C31.3791 33.6149 31.4923 33.4909 31.6339 33.4061C31.78 33.3214 31.9469 33.2784 32.1161 33.2816C32.2373 33.2769 32.3581 33.2972 32.4708 33.3414C32.5835 33.3856 32.6856 33.4526 32.7705 33.5381C32.944 33.7233 33.0408 33.966 33.0421 34.2183L33.044 34.3219C33.0472 34.5016 33.0084 34.6796 32.9308 34.8422C32.8605 34.9893 32.7478 35.1127 32.6068 35.1969C32.4594 35.2824 32.2909 35.3259 32.1199 35.3225C31.9938 35.3277 31.8681 35.3056 31.7516 35.2576C31.635 35.2097 31.5305 35.1371 31.4454 35.045C31.2692 34.8392 31.1787 34.5748 31.1924 34.3055L31.1921 34.2838ZM31.6393 34.3219C31.6296 34.4898 31.6741 34.6564 31.7664 34.7976C31.8061 34.853 31.8592 34.8978 31.9208 34.9278C31.9825 34.9579 32.0507 34.9722 32.1194 34.9696C32.1884 34.9725 32.257 34.9579 32.3188 34.9274C32.3805 34.8968 32.4334 34.8512 32.4724 34.7949C32.5661 34.6417 32.6101 34.4638 32.5984 34.2851C32.6075 34.1178 32.562 33.952 32.4686 33.8121C32.4291 33.7562 32.3761 33.711 32.3145 33.6805C32.2529 33.65 32.1845 33.6352 32.1156 33.6374C32.0478 33.6354 31.9805 33.6501 31.9198 33.6801C31.8591 33.7101 31.8068 33.7545 31.7678 33.8094C31.6716 33.9628 31.6267 34.1422 31.6396 34.3222L31.6393 34.3219ZM34.5795 34.9693C34.6812 34.9729 34.7805 34.9385 34.8576 34.873C34.8929 34.8435 34.9216 34.8071 34.9419 34.7661C34.9621 34.7251 34.9736 34.6804 34.9754 34.6347H35.3969C35.3918 34.7576 35.3516 34.8765 35.2809 34.9777C35.2065 35.0855 35.105 35.1723 34.9863 35.2296C34.8619 35.2916 34.7243 35.3234 34.585 35.3225C34.4614 35.3281 34.3381 35.307 34.2237 35.2607C34.1092 35.2143 34.0064 35.1438 33.9224 35.0541C33.7494 34.8474 33.662 34.5835 33.678 34.3157V34.2712C33.6648 34.0097 33.7516 33.753 33.9211 33.5518C34.0046 33.4613 34.1072 33.3902 34.2218 33.3435C34.3363 33.2968 34.4599 33.2757 34.5836 33.2816C34.7962 33.2729 35.0038 33.3463 35.1625 33.4863C35.2368 33.5551 35.2959 33.6382 35.3363 33.7305C35.3767 33.8229 35.3974 33.9224 35.3971 34.023H34.9757C34.9745 33.9188 34.9327 33.8192 34.8589 33.7447C34.8225 33.7086 34.779 33.6802 34.731 33.6615C34.683 33.6427 34.6317 33.6338 34.5801 33.6355C34.5156 33.6323 34.4513 33.6448 34.3929 33.672C34.3344 33.6991 34.2837 33.74 34.245 33.7911C34.1561 33.9322 34.1142 34.0973 34.1252 34.2631V34.334C34.113 34.5012 34.1538 34.668 34.242 34.8113C34.2806 34.8633 34.3317 34.905 34.3906 34.9327C34.4496 34.9603 34.5146 34.973 34.5798 34.9696L34.5795 34.9693ZM36.8922 34.9693C36.9939 34.9729 37.0931 34.9385 37.1703 34.873C37.2056 34.8435 37.2343 34.8071 37.2545 34.7661C37.2748 34.7251 37.2863 34.6804 37.2881 34.6347H37.7095C37.7045 34.7576 37.6643 34.8765 37.5936 34.9777C37.5192 35.0855 37.4177 35.1723 37.299 35.2296C37.1745 35.2916 37.037 35.3234 36.8976 35.3225C36.7741 35.3281 36.6508 35.307 36.5363 35.2607C36.4219 35.2143 36.3191 35.1438 36.2351 35.0541C36.062 34.8474 35.9747 34.5835 35.9907 34.3157V34.2712C35.9775 34.0097 36.0642 33.753 36.2337 33.5518C36.3172 33.4613 36.4199 33.3902 36.5345 33.3435C36.649 33.2968 36.7725 33.2757 36.8963 33.2816C37.1089 33.2729 37.3165 33.3463 37.4752 33.4863C37.5495 33.5551 37.6086 33.6382 37.649 33.7305C37.6893 33.8229 37.71 33.9224 37.7098 34.023H37.2889C37.2877 33.9188 37.2459 33.8192 37.1722 33.7447C37.1358 33.7086 37.0922 33.6802 37.0442 33.6615C36.9963 33.6427 36.9449 33.6338 36.8933 33.6355C36.8288 33.6323 36.7645 33.6448 36.7061 33.672C36.6477 33.6991 36.5969 33.74 36.5582 33.7911C36.4693 33.9322 36.4274 34.0973 36.4385 34.2631V34.334C36.4263 34.5012 36.4671 34.668 36.5552 34.8113C36.5938 34.8632 36.6448 34.9049 36.7036 34.9325C36.7625 34.9602 36.8274 34.9729 36.8925 34.9696L36.8922 34.9693ZM39.6301 33.3178H40.0757V35.2862H39.6301V33.9728L38.8497 35.2862H38.4041V33.3181H38.8497V34.6313L39.6301 33.3178ZM42.1342 33.3178H42.5798V35.2862H42.1342V33.9728L41.3538 35.2862H40.9082V33.3181H41.3538V34.6313L42.1342 33.3178ZM42.3441 32.563C42.3465 32.6329 42.3331 32.7025 42.3049 32.7667C42.2767 32.8309 42.2345 32.888 42.1812 32.9341C42.0601 33.0333 41.9057 33.0839 41.7487 33.0761C41.5916 33.0839 41.4372 33.0333 41.3161 32.9341C41.2628 32.888 41.2206 32.8309 41.1924 32.7667C41.1642 32.7025 41.1508 32.6329 41.1532 32.563H41.4882C41.4861 32.5971 41.4912 32.6313 41.503 32.6634C41.5149 32.6955 41.5334 32.7248 41.5572 32.7495C41.5829 32.7724 41.6129 32.7901 41.6455 32.8015C41.6782 32.8128 41.7127 32.8177 41.7473 32.8158C41.7819 32.8179 41.8165 32.8131 41.8491 32.8017C41.8818 32.7903 41.9118 32.7726 41.9374 32.7495C41.961 32.7247 41.9792 32.6953 41.991 32.6632C42.0027 32.6312 42.0076 32.5971 42.0055 32.563H42.3441ZM44.2131 34.9696C44.3148 34.9732 44.4141 34.9388 44.4912 34.8733C44.5265 34.8438 44.5552 34.8074 44.5755 34.7664C44.5957 34.7254 44.6072 34.6806 44.609 34.635H45.0304C45.0254 34.7579 44.9852 34.8768 44.9145 34.9779C44.8402 35.0854 44.7388 35.172 44.6204 35.2291C44.496 35.2911 44.3584 35.3229 44.2191 35.3219C44.0955 35.3276 43.9722 35.3065 43.8578 35.2601C43.7434 35.2138 43.6405 35.1433 43.5565 35.0536C43.3835 34.8469 43.2962 34.583 43.3122 34.3152V34.2712C43.2989 34.0097 43.3857 33.753 43.5552 33.5518C43.6387 33.4613 43.7414 33.3902 43.8559 33.3435C43.9704 33.2968 44.094 33.2757 44.2177 33.2816C44.4303 33.2729 44.6379 33.3463 44.7967 33.4863C44.8709 33.5551 44.9301 33.6382 44.9704 33.7305C45.0108 33.8229 45.0315 33.9224 45.0313 34.023H44.6098C44.6086 33.9188 44.5668 33.8192 44.4931 33.7447C44.4567 33.7086 44.4131 33.6802 44.3651 33.6615C44.3172 33.6427 44.2658 33.6338 44.2142 33.6355C44.1497 33.6323 44.0854 33.6448 44.027 33.672C43.9686 33.6991 43.9178 33.74 43.8791 33.7911C43.7902 33.9322 43.7483 34.0973 43.7594 34.2631V34.334C43.7472 34.5012 43.788 34.668 43.8761 34.8113C43.9146 34.8632 43.9656 34.9048 44.0244 34.9325C44.0832 34.9601 44.1481 34.9729 44.2131 34.9696ZM46.4153 34.5076H46.1888V35.2857H45.7416V33.3181H46.1888V34.104H46.3857L46.9361 33.3181H47.4884L46.7686 34.2604L47.549 35.2862H46.9673L46.4153 34.5076ZM49.3778 33.3181H49.8233V35.2862H49.3778V33.9728L48.5971 35.2862H48.1504V33.3181H48.596V34.6313L49.3778 33.3181ZM51.3545 33.9655L51.7347 33.3181H52.2316L51.6223 34.2875L52.2506 35.2862H51.7564L51.3586 34.6119L50.963 35.2862H50.4661L51.0955 34.2875L50.4881 33.3181H50.9815L51.3545 33.9655ZM55.4727 35.2862V32.6379H56.2642C56.4847 32.6338 56.7023 32.6878 56.8947 32.7943C57.0775 32.898 57.2256 33.0523 57.3208 33.2381C57.4244 33.4423 57.4762 33.6683 57.4717 33.8966V34.0294C57.4768 34.2591 57.4246 34.4865 57.3199 34.6916C57.2232 34.8776 57.0726 35.0308 56.8874 35.1319C56.6901 35.2375 56.4684 35.2907 56.2441 35.2865L55.4727 35.2862ZM55.9384 33.009V34.9189H56.2422C56.3471 34.9253 56.4522 34.9083 56.5496 34.8691C56.6469 34.8299 56.7341 34.7695 56.8046 34.6924C56.947 34.5059 57.0178 34.2756 57.0044 34.0423V33.895C57.0204 33.6603 56.9532 33.4275 56.8143 33.2365C56.7465 33.1593 56.6615 33.0986 56.5661 33.0592C56.4706 33.0198 56.3672 33.0027 56.2639 33.0092L55.9384 33.009ZM58.708 35.2862H58.2608V33.3181H58.708V35.2862ZM58.2331 32.8069C58.2322 32.7759 58.2374 32.7449 58.2487 32.7159C58.2599 32.6869 58.2769 32.6604 58.2986 32.6379C58.3233 32.6145 58.3526 32.5964 58.3848 32.5848C58.417 32.5732 58.4512 32.5683 58.4854 32.5705C58.5197 32.5684 58.554 32.5733 58.5863 32.5849C58.6186 32.5965 58.6481 32.6145 58.673 32.6379C58.6949 32.6603 58.7121 32.6867 58.7235 32.7158C58.7348 32.7448 58.7402 32.7758 58.7393 32.8069C58.7402 32.8376 58.7348 32.8682 58.7234 32.8968C58.712 32.9254 58.6949 32.9514 58.673 32.9733C58.6479 32.9964 58.6184 33.0141 58.5861 33.0255C58.5538 33.0369 58.5196 33.0417 58.4854 33.0396C58.4513 33.0418 58.4171 33.037 58.385 33.0256C58.3529 33.0142 58.3234 32.9964 58.2986 32.9733C58.2769 32.9513 58.2598 32.9253 58.2485 32.8967C58.2372 32.8681 58.2317 32.8376 58.2326 32.8069H58.2331ZM59.455 34.2875C59.4411 34.0261 59.5177 33.7679 59.6723 33.5553C59.7397 33.4674 59.8274 33.3966 59.9281 33.349C60.0288 33.3014 60.1396 33.2783 60.2512 33.2816C60.3528 33.277 60.4541 33.2957 60.547 33.3364C60.64 33.3771 60.7221 33.4386 60.7869 33.5161L60.8073 33.3178H61.2113V35.2261C61.2172 35.3394 61.1984 35.4525 61.1562 35.5579C61.1141 35.6634 61.0495 35.7587 60.967 35.8374C60.7852 35.9934 60.5492 36.0737 60.3088 36.0612C60.1613 36.0608 60.0156 36.0301 59.8808 35.971C59.7558 35.9216 59.6462 35.8403 59.5634 35.7354L59.7752 35.4698C59.8355 35.5457 59.9127 35.607 60.0008 35.6489C60.0889 35.6907 60.1855 35.7121 60.2832 35.7113C60.4117 35.7183 60.5378 35.6755 60.6349 35.5921C60.6799 35.5462 60.7147 35.4914 60.7369 35.4313C60.7591 35.3712 60.7683 35.3071 60.7639 35.2433V35.1097C60.6989 35.1804 60.619 35.2361 60.5299 35.2729C60.4407 35.3096 60.3445 35.3266 60.2479 35.3225C60.1377 35.3244 60.0285 35.3005 59.9294 35.2528C59.8303 35.205 59.744 35.1347 59.6777 35.0477C59.518 34.8268 59.4396 34.5586 59.4556 34.2875H59.455ZM59.9006 34.3256C59.8914 34.49 59.9342 34.6531 60.0231 34.7923C60.0605 34.8467 60.1113 34.8908 60.1707 34.9206C60.2302 34.9503 60.2962 34.9647 60.3628 34.9624C60.4448 34.966 60.5262 34.9463 60.5973 34.9057C60.6685 34.8651 60.7263 34.8053 60.7641 34.7332V33.8673C60.7264 33.7964 60.6689 33.7376 60.5985 33.698C60.528 33.6583 60.4476 33.6394 60.3666 33.6436C60.2992 33.641 60.2323 33.6556 60.1722 33.6858C60.1121 33.7161 60.0609 33.761 60.0234 33.8164C59.9317 33.9701 59.8887 34.1476 59.9006 34.3256ZM62.4857 35.286H62.0384V33.3181H62.4857V35.286ZM62.0107 32.8067C62.0098 32.7756 62.0151 32.7447 62.0263 32.7157C62.0375 32.6866 62.0545 32.6601 62.0762 32.6376C62.1009 32.6142 62.1303 32.5961 62.1624 32.5845C62.1946 32.5729 62.2288 32.5681 62.263 32.5703C62.2973 32.5682 62.3316 32.5731 62.3639 32.5846C62.3962 32.5962 62.4257 32.6143 62.4506 32.6376C62.4726 32.66 62.4897 32.6865 62.5011 32.7155C62.5125 32.7445 62.5178 32.7755 62.5169 32.8067C62.5178 32.8374 62.5124 32.8679 62.501 32.8965C62.4896 32.9251 62.4725 32.9511 62.4506 32.973C62.4256 32.9961 62.396 33.0139 62.3637 33.0253C62.3315 33.0367 62.2972 33.0414 62.263 33.0393C62.2289 33.0415 62.1948 33.0368 62.1626 33.0254C62.1305 33.014 62.1011 32.9962 62.0762 32.973C62.0547 32.951 62.0378 32.925 62.0266 32.8965C62.0154 32.868 62.0101 32.8375 62.011 32.8069L62.0107 32.8067ZM63.8724 32.8394V33.3178H64.2254V33.646H63.8724V34.7448C63.8671 34.8026 63.8831 34.8605 63.9175 34.9076C63.9393 34.9265 63.9649 34.9408 63.9927 34.9494C64.0204 34.9579 64.0496 34.9607 64.0785 34.9575C64.1312 34.9574 64.1837 34.9513 64.2349 34.9393V35.2806C64.1391 35.3077 64.04 35.3217 63.9403 35.3225C63.5963 35.3225 63.4244 35.1351 63.4244 34.7603V33.646H63.0966V33.3186H63.4244V32.8397L63.8724 32.8394ZM66.0947 35.286C66.0688 35.2274 66.0515 35.1655 66.0431 35.1022C65.9765 35.1731 65.8955 35.2294 65.8055 35.2673C65.7154 35.3052 65.6182 35.3239 65.5204 35.3222C65.3416 35.3294 65.1668 35.2689 65.0316 35.1531C64.9709 35.1014 64.9224 35.0371 64.8895 34.9649C64.8567 34.8926 64.8403 34.8141 64.8415 34.7348C64.8368 34.6412 64.856 34.5479 64.8973 34.4635C64.9386 34.3791 65.0008 34.3063 65.078 34.2518C65.2803 34.1277 65.5168 34.0689 65.7544 34.0836H66.0287V33.9545C66.0331 33.8649 66.0021 33.7772 65.9421 33.7098C65.9072 33.6772 65.8657 33.6521 65.8204 33.6363C65.775 33.6205 65.7269 33.6143 65.6789 33.6181C65.5892 33.6143 65.5009 33.6409 65.4286 33.6935C65.398 33.7154 65.3732 33.7443 65.3562 33.7777C65.3393 33.8111 65.3307 33.848 65.3311 33.8853H64.8839C64.8846 33.7752 64.9229 33.6684 64.9925 33.5824C65.0699 33.4846 65.1717 33.4084 65.2879 33.3613C65.4198 33.3063 65.5617 33.2789 65.7047 33.2808C65.9057 33.2704 66.1038 33.3321 66.2625 33.4544C66.3325 33.515 66.388 33.5903 66.4249 33.6748C66.4618 33.7593 66.4793 33.8508 66.4759 33.9427V34.8304C66.4698 34.9754 66.4956 35.12 66.5514 35.2543V35.2852L66.0947 35.286ZM65.6032 34.9677C65.6905 34.968 65.7764 34.9461 65.8527 34.9041C65.9269 34.8653 65.988 34.8059 66.0284 34.7332V34.3621H65.7873C65.6569 34.3534 65.5269 34.3832 65.4137 34.4477C65.3736 34.474 65.341 34.51 65.3191 34.5523C65.2972 34.5946 65.2866 34.6417 65.2885 34.6892C65.2868 34.7272 65.2935 34.765 65.3083 34.8001C65.3231 34.8351 65.3455 34.8665 65.374 34.8921C65.4381 34.9449 65.5201 34.972 65.6035 34.9677H65.6032ZM67.7592 35.286H67.312V32.4922H67.7592V35.286ZM72.6849 34.6688H71.6468L71.4296 35.286H70.9459L71.9582 32.6376H72.3761L73.3903 35.286H72.9043L72.6849 34.6688ZM71.7774 34.2977H72.5543L72.166 33.199L71.7774 34.2977ZM75.3158 33.6739H74.4507V35.2862H74.0051V33.3181H75.3158V33.6739ZM76.7859 35.3225C76.6588 35.3276 76.5319 35.3067 76.4133 35.2612C76.2946 35.2157 76.1868 35.1465 76.0965 35.0579C76.0067 34.964 75.937 34.8532 75.8916 34.7321C75.8462 34.6109 75.8261 34.482 75.8323 34.353V34.2993C75.829 34.1173 75.8684 33.9371 75.9474 33.7726C76.0183 33.6244 76.1304 33.4992 76.2705 33.4115C76.4094 33.3253 76.5704 33.2805 76.7343 33.2824C76.8519 33.2756 76.9695 33.2952 77.0783 33.3396C77.1872 33.384 77.2845 33.4521 77.3629 33.5389C77.5225 33.7461 77.6014 34.0032 77.585 34.2631V34.4413H76.2836C76.289 34.5854 76.3476 34.7225 76.4484 34.8269C76.496 34.8737 76.5529 34.9104 76.6154 34.9348C76.6779 34.9592 76.7448 34.9708 76.812 34.9688C76.9093 34.9709 77.0057 34.9497 77.093 34.9071C77.1803 34.8645 77.256 34.8017 77.3135 34.7241L77.5546 34.9514C77.4747 35.0691 77.3645 35.1635 77.2353 35.2251C77.0952 35.2916 76.9413 35.325 76.7859 35.3225ZM76.7316 33.6363C76.6756 33.6343 76.6198 33.6448 76.5683 33.6668C76.5169 33.6889 76.4711 33.722 76.4343 33.7638C76.3517 33.8653 76.3015 33.9888 76.2898 34.1185H77.1422V34.0858C77.142 33.9637 77.0998 33.8453 77.0224 33.7501C76.9852 33.7116 76.9401 33.6816 76.8901 33.6619C76.8401 33.6423 76.7864 33.6336 76.7327 33.6363H76.7316ZM79.9583 35.2862H79.511V34.4912H78.7361V35.2862H78.2889V33.3181H78.7361V34.1383H79.511V33.3181H79.9583V35.2862ZM82.3407 33.6691H81.6947V35.2862H81.2475V33.6691H80.6089V33.3181H82.341L82.3407 33.6691ZM83.7956 34.9696C83.8973 34.9732 83.9966 34.9388 84.0737 34.8733C84.109 34.8438 84.1377 34.8074 84.158 34.7664C84.1782 34.7254 84.1897 34.6806 84.1915 34.635H84.613C84.6079 34.7579 84.5677 34.8768 84.497 34.9779C84.4225 35.0855 84.321 35.172 84.2024 35.2291C84.078 35.2911 83.9404 35.3229 83.8011 35.3219C83.6775 35.3276 83.5542 35.3065 83.4398 35.2601C83.3253 35.2138 83.2225 35.1433 83.1385 35.0536C82.9655 34.8469 82.8781 34.583 82.8941 34.3152V34.2712C82.8809 34.0097 82.9677 33.753 83.1371 33.5518C83.2207 33.4613 83.3233 33.3902 83.4379 33.3435C83.5524 33.2968 83.6759 33.2757 83.7997 33.2816C84.0123 33.2729 84.2199 33.3463 84.3786 33.4863C84.4529 33.5551 84.512 33.6382 84.5524 33.7305C84.5928 33.8229 84.6135 33.9224 84.6132 34.023H84.1918C84.1906 33.9188 84.1488 33.8192 84.075 33.7447C84.0386 33.7086 83.9951 33.6802 83.9471 33.6615C83.8991 33.6427 83.8477 33.6338 83.7962 33.6355C83.7317 33.6323 83.6674 33.6448 83.609 33.672C83.5505 33.6991 83.4998 33.74 83.4611 33.7911C83.3723 33.9322 83.3305 34.0973 83.3416 34.2631V34.334C83.3294 34.5012 83.3702 34.668 83.4584 34.8113C83.4969 34.8632 83.5479 34.9049 83.6068 34.9325C83.6656 34.9602 83.7305 34.9729 83.7956 34.9696ZM86.8575 33.6691H86.2115V35.2862H85.7637V33.6691H85.1251V33.3181H86.8572L86.8575 33.6691ZM87.5282 35.2862V33.3181H88.3363C88.5531 33.3045 88.7692 33.3535 88.9584 33.459C89.0267 33.502 89.0823 33.5621 89.1198 33.6331C89.1572 33.7041 89.1752 33.7836 89.1718 33.8636C89.1726 33.9524 89.1424 34.0389 89.0863 34.1083C89.0199 34.1867 88.932 34.2445 88.8332 34.2747C88.9509 34.2946 89.0592 34.351 89.1425 34.4357C89.217 34.5131 89.2579 34.6162 89.2565 34.723C89.2609 34.8042 89.2444 34.8852 89.2085 34.9583C89.1726 35.0315 89.1185 35.0945 89.0512 35.1413C88.8741 35.2478 88.6681 35.298 88.4612 35.2852L87.5282 35.2862ZM87.9754 34.4477V34.9371H88.4642C88.6937 34.9371 88.8085 34.8559 88.8085 34.6935C88.8085 34.5311 88.6919 34.4492 88.4587 34.448L87.9754 34.4477ZM87.9754 34.1311H88.3436C88.597 34.1311 88.7238 34.0571 88.7238 33.9092C88.7238 33.7539 88.6035 33.6739 88.3629 33.6691H87.9746L87.9754 34.1311Z" fill="white"/>
</g>
<defs>
<clipPath id="clip0_2124_1836">
<rect width="90" height="36" fill="white"/>
</clipPath>
</defs>
</svg>
