<svg width="149" height="108" viewBox="0 0 149 108" fill="none" xmlns="http://www.w3.org/2000/svg">
<path d="M61.207 2.5842L69.4043 12.3789C70.8944 14.1594 73.1508 15.1142 75.4667 14.9435L111.873 12.263C117.529 11.8464 122.452 16.094 122.868 21.7501L127.82 88.9916C128.236 94.6477 123.989 99.5704 118.333 99.987L17.3932 107.42C11.7371 107.836 6.8144 103.589 6.3978 97.9325L0.0198257 11.3128C-0.272936 7.33914 2.71118 3.88079 6.68486 3.58803L55.144 0.0195366C57.4604 -0.151098 59.7163 0.80366 61.207 2.5842Z" fill="#40B6B7"/>
<g opacity="0.3">
<path d="M61.207 2.5842L69.4043 12.3789C70.8944 14.1594 73.1508 15.1142 75.4667 14.9435L111.873 12.263C117.529 11.8464 122.452 16.094 122.868 21.7501L127.82 88.9916C128.236 94.6477 123.989 99.5704 118.333 99.987L17.3932 107.42C11.7371 107.836 6.8144 103.589 6.3978 97.9325L0.0198257 11.3128C-0.272936 7.33914 2.71118 3.88079 6.68486 3.58803L55.144 0.0195366C57.4604 -0.151098 59.7163 0.80366 61.207 2.5842Z" fill="black"/>
</g>
<path d="M43.1251 8.74489L8.56726 11.2896C7.78941 11.3466 7.10573 10.7571 7.04866 9.97928L7.04581 9.9382C6.98874 9.16035 7.57826 8.47666 8.3561 8.4196L42.9139 5.87491C43.6918 5.81784 44.3755 6.40736 44.4325 7.18521L44.4354 7.22629C44.4925 8.00414 43.9029 8.68725 43.1251 8.74489Z" fill="white"/>
<path d="M38.3563 14.8738L8.99109 17.0361C8.21324 17.0932 7.52956 16.5037 7.47249 15.7258L7.46964 15.6847C7.41257 14.9069 8.00209 14.2232 8.77993 14.1661L38.1451 12.0038C38.923 11.9467 39.6066 12.5363 39.6637 13.3141L39.6666 13.3552C39.7236 14.1336 39.1341 14.8167 38.3563 14.8738Z" fill="white"/>
<path d="M121.647 96.1609L15.6104 103.968C12.9516 104.164 10.6164 102.149 10.4206 99.4902L5.60689 34.116C5.41114 31.4571 7.42623 29.1219 10.0851 28.9261L116.122 21.1186C118.781 20.9229 121.116 22.938 121.312 25.5968L126.125 90.971C126.321 93.6293 124.306 95.9651 121.647 96.1609Z" fill="#E0E0E0"/>
<path d="M121.648 96.1603L17.1309 103.856C14.4721 104.052 12.1369 102.037 11.9411 99.3778L7.1274 34.0041C6.93165 31.3453 8.94674 29.01 11.6056 28.8143L116.123 21.1186C118.781 20.9229 121.117 22.938 121.312 25.5968L126.126 90.971C126.322 93.6287 124.307 95.9645 121.648 96.1603Z" fill="white"/>
<path d="M20.5508 103.608L42.4308 101.996L22.6229 36.8477L20.5508 103.608Z" fill="#F5F5F5"/>
<path d="M142.272 77.9096L37.4237 95.5614C34.7945 96.0043 32.2818 94.2152 31.839 91.586L20.956 26.9445C20.5131 24.3154 22.3022 21.8027 24.9314 21.3598L129.779 3.70795C132.409 3.2651 134.921 5.0542 135.364 7.68335L146.247 72.3248C146.689 74.954 144.901 77.4667 142.272 77.9096Z" fill="white"/>
<path opacity="0.3" d="M142.272 77.9101L38.9266 95.3086C36.2975 95.7515 33.7847 93.9624 33.3419 91.3332L22.4589 26.6917C22.0161 24.0626 23.8052 21.5499 26.4343 21.107L129.78 3.70795C132.409 3.2651 134.922 5.0542 135.364 7.68335L146.247 72.3248C146.69 74.9546 144.901 77.4673 142.272 77.9101Z" fill="#40B6B7"/>
<path opacity="0.2" d="M128.465 17.6196L32.233 33.8208C31.0733 34.0159 29.9651 33.2272 29.7699 32.0676L29.2289 28.8541C29.0337 27.6944 29.8224 26.5862 30.982 26.391L127.214 10.1898C128.374 9.99465 129.482 10.7833 129.677 11.943L130.218 15.1565C130.414 16.3161 129.624 17.4244 128.465 17.6196Z" fill="#40B6B7"/>
<path opacity="0.2" d="M129.507 23.4037L33.141 39.6277C32.0184 39.8166 31.2548 40.8895 31.4437 42.012L31.9203 44.8432C32.1092 45.9657 33.1821 46.7293 34.3046 46.5404L130.671 30.3164C131.794 30.1275 132.557 29.0546 132.368 27.9321L131.892 25.1003C131.703 23.9784 130.63 23.2148 129.507 23.4037Z" fill="#40B6B7"/>
<path d="M138.78 98.4795L27.7676 106.653V106.655L17.3926 107.419C23.1228 106.998 27.4258 102.01 27.0035 96.2801L23.6519 50.7617C23.3734 46.9775 26.2154 43.6835 29.9996 43.405L137.68 35.4759C141.465 35.1974 144.759 38.0394 145.037 41.8236L148.389 87.3426C148.811 93.0711 144.508 98.0578 138.78 98.4795Z" fill="#40B6B7"/>
</svg>
