<svg width="43" height="43" viewBox="0 0 43 43" fill="none" xmlns="http://www.w3.org/2000/svg">
<mask id="mask0_1906_296" style="mask-type:alpha" maskUnits="userSpaceOnUse" x="0" y="0" width="43" height="43">
<rect width="43" height="43" fill="#D9D9D9"/>
</mask>
<g mask="url(#mask0_1906_296)">
<path d="M38.8727 20.9998V20.8775C38.8773 17.4222 37.7993 14.0497 35.7856 11.2201C33.772 8.39049 30.9209 6.24164 27.6213 5.06676C24.3217 3.89188 20.7344 3.74818 17.3489 4.65529C13.9633 5.56239 10.9444 7.4761 8.70407 10.1353C7.31576 9.782 5.84365 9.94983 4.57403 10.6062C3.30441 11.2625 2.32806 12.3604 1.83486 13.6864C1.34166 15.0123 1.36688 16.4715 1.9056 17.7802C2.44433 19.0888 3.45805 20.1534 4.74961 20.7668C4.74961 20.8018 4.74961 20.8367 4.74961 20.8746C4.75534 24.5369 5.974 28.0975 8.22069 31.016C10.4674 33.9345 13.6194 36.0516 17.1986 37.0461C17.3407 38.1791 17.9001 39.2214 18.7708 39.9752C19.6415 40.729 20.7628 41.1418 21.9221 41.1353C23.0813 41.1288 24.1979 40.7035 25.0598 39.9401C25.9218 39.1767 26.4692 38.1282 26.5982 36.9937C28.8085 36.3524 30.8646 35.2784 32.6434 33.836C34.4222 32.3935 35.887 30.6124 36.9502 28.5992C37.1843 28.6427 37.4218 28.6651 37.66 28.6662C38.6125 28.6681 39.5342 28.3341 40.2583 27.7247C40.9824 27.1153 41.4611 26.2707 41.6076 25.3439C41.7542 24.4171 41.559 23.4692 41.0573 22.6718C40.5556 21.8745 39.7807 21.2803 38.8727 20.9969M21.8925 33.4401C22.5285 33.4396 23.1504 33.6248 23.6795 33.9723C24.2086 34.3199 24.6211 34.8141 24.8649 35.3926C25.1087 35.9711 25.1728 36.6078 25.0491 37.2222C24.9254 37.8365 24.6194 38.401 24.1699 38.844C23.7204 39.2871 23.1475 39.589 22.5238 39.7114C21.9 39.8338 21.2534 39.7713 20.6658 39.5317C20.0782 39.2921 19.5759 38.8863 19.2225 38.3656C18.8691 37.8449 18.6804 37.2326 18.6804 36.6063C18.6804 35.7671 19.0187 34.9622 19.621 34.3685C20.2233 33.7748 21.0403 33.4409 21.8925 33.4401ZM37.66 27.1807C37.1691 27.1812 36.6891 27.0384 36.2806 26.7702C35.8721 26.502 35.5536 26.1206 35.3653 25.6741C35.177 25.2276 35.1275 24.7361 35.2229 24.2619C35.3183 23.7877 35.5544 23.3519 35.9013 23.0099C36.2483 22.6678 36.6904 22.4348 37.1719 22.3403C37.6533 22.2457 38.1524 22.2939 38.606 22.4788C39.0596 22.6637 39.4474 22.9769 39.7202 23.3789C39.993 23.7808 40.1386 24.2534 40.1386 24.7369C40.137 25.384 39.8755 26.0043 39.4111 26.4622C38.9467 26.92 38.3172 27.1783 37.66 27.1807ZM31.7121 16.6948C31.7097 14.4823 30.8162 12.361 29.2276 10.7965C27.6389 9.23206 25.4849 8.35211 23.2383 8.3498H17.1542L25.1401 21.6639L26.471 20.9561L19.8132 9.8353H23.2471C24.1618 9.8353 25.0676 10.0127 25.9127 10.3574C26.7578 10.7022 27.5256 11.2074 28.1724 11.8444C28.8192 12.4814 29.3323 13.2375 29.6823 14.0698C30.0324 14.902 30.2125 15.794 30.2125 16.6948C30.2125 17.5956 30.0324 18.4876 29.6823 19.3198C29.3323 20.152 28.8192 20.9082 28.1724 21.5452C27.5256 22.1822 26.7578 22.6874 25.9127 23.0321C25.0676 23.3769 24.1618 23.5543 23.2471 23.5543H18.7692V25.0398H23.2383C24.4507 25.0401 25.6486 24.7807 26.7491 24.2796L31.7772 32.6304C30.2184 33.9182 28.4174 34.8911 26.4769 35.4936C26.2111 34.4924 25.6144 33.6069 24.7811 32.9765C23.9477 32.3462 22.9249 32.007 21.8741 32.0123C20.8233 32.0176 19.8042 32.3673 18.9775 33.006C18.1507 33.6448 17.5634 34.5364 17.308 35.5402C15.3099 34.9377 13.4544 33.9473 11.8511 32.6275L20.8603 17.3065L19.5589 16.5492L10.7153 31.5964C7.94718 28.8323 6.35953 25.1288 6.27875 21.2474C6.60184 21.3049 6.92944 21.3341 7.25775 21.3348C8.52572 21.3368 9.7591 20.9277 10.7675 20.1706C11.7758 19.4136 12.503 18.3507 12.8369 17.146C13.1707 15.9414 13.0925 14.662 12.6145 13.5055C12.1364 12.3489 11.285 11.3795 10.1918 10.747C12.2769 8.4183 15.032 6.76939 18.0912 6.01923C21.1504 5.26908 24.369 5.45318 27.3195 6.54709C30.2699 7.64099 32.8127 9.59294 34.61 12.1437C36.4073 14.6944 37.3741 17.7233 37.382 20.828C36.5451 20.8899 35.7492 21.2101 35.1078 21.7431C34.4663 22.2761 34.0118 22.9948 33.809 23.7968C33.6062 24.5989 33.6654 25.4435 33.9782 26.2105C34.291 26.9775 34.8414 27.6279 35.5512 28.069C34.8508 29.3604 33.9675 30.5471 32.9277 31.5935L28.0771 23.5426C29.2041 22.7778 30.1255 21.7546 30.7618 20.5611C31.3982 19.3677 31.7304 18.0398 31.7298 16.6919M11.5287 15.6433C11.5293 16.4753 11.2793 17.2888 10.8103 17.9808C10.3414 18.6729 9.67458 19.2124 8.89422 19.5312C8.11386 19.85 7.25502 19.9337 6.42635 19.7717C5.59767 19.6098 4.83639 19.2094 4.23879 18.6213C3.6412 18.0332 3.23414 17.2838 3.0691 16.4678C2.90407 15.6519 2.98847 14.806 3.31164 14.0373C3.63481 13.2686 4.18223 12.6115 4.88464 12.1493C5.58706 11.687 6.41292 11.4402 7.25775 11.4402C8.38948 11.4418 9.47445 11.885 10.275 12.6728C11.0755 13.4606 11.5263 14.5288 11.5287 15.6433Z" fill="#43B7B7"/>
</g>
</svg>
