<?xml version="1.0" encoding="utf-8"?>
<!-- Generator: Adobe Illustrator 28.1.0, SVG Export Plug-In . SVG Version: 6.00 Build 0)  -->
<svg version="1.1" id="Слой_1" xmlns="http://www.w3.org/2000/svg" xmlns:xlink="http://www.w3.org/1999/xlink" x="0px" y="0px"
	 viewBox="0 0 1347.69 1152.48" style="enable-background:new 0 0 1347.69 1152.48;" xml:space="preserve">
<style type="text/css">
	.st0{opacity:0.5;}
	.st1{opacity:0.7;}
	.st2{fill:#FFFFFF;}
	.st3{fill:#C6C6C6;}
	.st4{fill:#F1BE00;}
	.st5{fill:none;stroke:#000000;stroke-miterlimit:10;}
	.st6{fill:#E30613;}
	.st7{fill:#26292A;}
	.st8{fill:#D92C27;}
	.st9{opacity:0.6;}
	.st10{fill:none;stroke:#F1BE00;stroke-width:2.8346;stroke-miterlimit:10;}
	.st11{fill:#8DBE22;}
	.st12{fill:url(#XMLID_00000145763323165380531470000013960022071179706277_);}
	.st13{fill:url(#XMLID_00000158740599313692363120000006723746279247770249_);}
	.st14{fill:url(#XMLID_00000103251262470768628320000013491926098687772309_);}
	.st15{fill:url(#XMLID_00000013883288064317208730000005937453808437872518_);}
	.st16{fill:url(#XMLID_00000098196188348403239660000012020771450388534959_);}
	.st17{fill:url(#XMLID_00000125604329226831229120000000789985614465078201_);}
	.st18{fill:url(#XMLID_00000058552632557360493040000002069795569216134074_);}
	.st19{fill:url(#XMLID_00000065064148794443440720000013053298101410845596_);}
	.st20{fill:url(#XMLID_00000083804275467618129100000012663608715204844188_);}
	.st21{fill:url(#XMLID_00000173874446534645069460000013110027548503909307_);}
	.st22{fill:url(#XMLID_00000107551030595697930160000014170270161868268715_);}
	.st23{fill:url(#XMLID_00000178894858662856805640000001056034264988036266_);}
	.st24{fill:url(#XMLID_00000030486386793417563800000005433546008511695000_);}
	.st25{fill:url(#XMLID_00000121997738588143527890000010366892826416040876_);}
	.st26{fill:url(#XMLID_00000142889144944594667650000014659074842079644288_);}
	.st27{fill:url(#XMLID_00000070116727107197567980000000765372650746847416_);}
	.st28{fill:url(#XMLID_00000012432426258716077710000007550201159869204906_);}
	.st29{fill:url(#XMLID_00000096767010822894964640000014155095108121398715_);}
	.st30{fill:url(#XMLID_00000146473495547473909640000013704537307620528295_);}
	.st31{fill:url(#XMLID_00000008852020942250295410000001297237526607932804_);}
	.st32{fill:url(#XMLID_00000031901910725425609900000004340926444983476370_);}
	.st33{fill:url(#XMLID_00000075149571868930981070000009631136323928678327_);}
	.st34{fill:url(#XMLID_00000151507109260712209720000009021182322650871971_);}
	.st35{fill:url(#XMLID_00000002365823353814880980000000139508669058413445_);}
	.st36{fill:url(#XMLID_00000054956424145749488910000012618559984597868703_);}
</style>
<g>
	
		<radialGradient id="XMLID_00000008114238393096958620000000807773104709746088_" cx="-3818.98" cy="-1968.9574" r="1139.5624" gradientTransform="matrix(0.8764 0.4816 -0.4816 0.8764 3062.4795 3394.5632)" gradientUnits="userSpaceOnUse">
		<stop  offset="0.2944" style="stop-color:#EC2224"/>
		<stop  offset="1" style="stop-color:#941A1D"/>
	</radialGradient>
	<path id="XMLID_363_" style="fill:url(#XMLID_00000008114238393096958620000000807773104709746088_);" d="M1142.06,747.8
		l11.33,4.44c-16.53-262.35-165.63-512.97-388.31-652.67C679.58,45.93,582.75,7.69,482.04,1c-100.71-6.69-205.43,20.14-283.4,84.22
		c-60.72,49.9-97.5,113.2-115.32,194.11c-21.84,99.21,9,150.29,65.61,199.68c6.98,6.09,23.77,34.25,24.97,43.44
		c10.54,80.83-28.31,162.6-14.91,243.01c14.02,84.19,84.64,150.51,164.18,181.46c79.54,30.95,167.25,32.21,252.54,28.92
		c190.14-7.32,388.56-38.89,540.55-153.37C1140.37,804.32,1164.07,768.45,1142.06,747.8z"/>
	<g id="XMLID_319_">
		<g id="XMLID_341_">
			
				<radialGradient id="XMLID_00000155863540924809533550000001286565703387347351_" cx="-15031.9111" cy="9448.9521" r="269.5901" gradientTransform="matrix(-0.9107 0.413 -0.413 -0.9107 -8961.2002 16106.1328)" gradientUnits="userSpaceOnUse">
				<stop  offset="0" style="stop-color:#FFFFFC"/>
				<stop  offset="0.3553" style="stop-color:#F8F2EE"/>
				<stop  offset="0.5197" style="stop-color:#F3ECE8"/>
				<stop  offset="0.744" style="stop-color:#E5DDD6"/>
				<stop  offset="1" style="stop-color:#CEC3BA"/>
			</radialGradient>
			<path id="XMLID_361_" style="fill:url(#XMLID_00000155863540924809533550000001286565703387347351_);" d="M1205.24,997.25
				c-1.75,4.91-3.43,10.4-4.9,16.58C1200.34,1013.83,1206.77,1007.78,1205.24,997.25z"/>
			
				<radialGradient id="XMLID_00000091714331366116026740000000756300004715104902_" cx="-15031.96" cy="9449.0127" r="269.5627" gradientTransform="matrix(-0.9107 0.413 -0.413 -0.9107 -8961.2002 16106.1328)" gradientUnits="userSpaceOnUse">
				<stop  offset="0" style="stop-color:#FFFFFC"/>
				<stop  offset="0.3553" style="stop-color:#F8F2EE"/>
				<stop  offset="0.5197" style="stop-color:#F3ECE8"/>
				<stop  offset="0.744" style="stop-color:#E5DDD6"/>
				<stop  offset="1" style="stop-color:#CEC3BA"/>
			</radialGradient>
			<path id="XMLID_360_" style="fill:url(#XMLID_00000091714331366116026740000000756300004715104902_);" d="M1320.7,768.93
				c0.22,0.24,0.46,0.46,0.67,0.7C1321.38,769.63,1321.6,769.31,1320.7,768.93z"/>
			
				<radialGradient id="XMLID_00000054224388920214605680000013737134469285723531_" cx="-15031.7725" cy="9448.7998" r="269.7021" gradientTransform="matrix(-0.9107 0.413 -0.413 -0.9107 -8961.2002 16106.1328)" gradientUnits="userSpaceOnUse">
				<stop  offset="0" style="stop-color:#FFFFFC"/>
				<stop  offset="0.3553" style="stop-color:#F8F2EE"/>
				<stop  offset="0.5197" style="stop-color:#F3ECE8"/>
				<stop  offset="0.744" style="stop-color:#E5DDD6"/>
				<stop  offset="1" style="stop-color:#CEC3BA"/>
			</radialGradient>
			<path id="XMLID_359_" style="fill:url(#XMLID_00000054224388920214605680000013737134469285723531_);" d="M1154.02,1027.44
				c-0.14,0.17-0.25,0.32-0.4,0.48C1153.63,1027.93,1153.79,1027.73,1154.02,1027.44z"/>
			
				<radialGradient id="XMLID_00000075871410462869577740000002058373897013371025_" cx="-15032.002" cy="9448.9541" r="269.5626" gradientTransform="matrix(-0.9107 0.413 -0.413 -0.9107 -8961.2002 16106.1328)" gradientUnits="userSpaceOnUse">
				<stop  offset="0" style="stop-color:#FFFFFC"/>
				<stop  offset="0.3553" style="stop-color:#F8F2EE"/>
				<stop  offset="0.5197" style="stop-color:#F3ECE8"/>
				<stop  offset="0.744" style="stop-color:#E5DDD6"/>
				<stop  offset="1" style="stop-color:#CEC3BA"/>
			</radialGradient>
			<path id="XMLID_358_" style="fill:url(#XMLID_00000075871410462869577740000002058373897013371025_);" d="M1214.21,605.7
				c1.95-0.25,3.85-0.5,5.96-0.72C1220.17,604.98,1217.74,602.42,1214.21,605.7z"/>
			
				<radialGradient id="XMLID_00000133521547141633656020000002159106926552466310_" cx="-15031.9072" cy="9447.4619" r="270.2051" gradientTransform="matrix(-0.9107 0.413 -0.413 -0.9107 -8961.2002 16106.1328)" gradientUnits="userSpaceOnUse">
				<stop  offset="0" style="stop-color:#FFFFFC"/>
				<stop  offset="0.3553" style="stop-color:#F8F2EE"/>
				<stop  offset="0.5197" style="stop-color:#F3ECE8"/>
				<stop  offset="0.744" style="stop-color:#E5DDD6"/>
				<stop  offset="1" style="stop-color:#CEC3BA"/>
			</radialGradient>
			<path id="XMLID_357_" style="fill:url(#XMLID_00000133521547141633656020000002159106926552466310_);" d="M687.9,669.37
				c0.13-0.17,0.23-0.33,0.36-0.5C688.26,668.87,688.12,669.07,687.9,669.37z"/>
			
				<radialGradient id="XMLID_00000062181584986614917200000014563537934730287255_" cx="-15031.4834" cy="9448.7012" r="269.6046" gradientTransform="matrix(-0.9107 0.413 -0.413 -0.9107 -8961.2002 16106.1328)" gradientUnits="userSpaceOnUse">
				<stop  offset="0" style="stop-color:#FFFFFC"/>
				<stop  offset="0.3553" style="stop-color:#F8F2EE"/>
				<stop  offset="0.5197" style="stop-color:#F3ECE8"/>
				<stop  offset="0.744" style="stop-color:#E5DDD6"/>
				<stop  offset="1" style="stop-color:#CEC3BA"/>
			</radialGradient>
			<path id="XMLID_356_" style="fill:url(#XMLID_00000062181584986614917200000014563537934730287255_);" d="M183.89,702.67
				c0.13-0.17,0.23-0.33,0.36-0.5C184.24,702.17,184.1,702.36,183.89,702.67z"/>
			
				<radialGradient id="XMLID_00000138532372763061411930000011132143271630551199_" cx="-15031.9766" cy="9448.9971" r="269.5812" gradientTransform="matrix(-0.9107 0.413 -0.413 -0.9107 -8961.2002 16106.1328)" gradientUnits="userSpaceOnUse">
				<stop  offset="0" style="stop-color:#FFFFFC"/>
				<stop  offset="0.3553" style="stop-color:#F8F2EE"/>
				<stop  offset="0.5197" style="stop-color:#F3ECE8"/>
				<stop  offset="0.744" style="stop-color:#E5DDD6"/>
				<stop  offset="1" style="stop-color:#CEC3BA"/>
			</radialGradient>
			<path id="XMLID_355_" style="fill:url(#XMLID_00000138532372763061411930000011132143271630551199_);" d="M134.79,736.21
				c1.42-5.02,2.73-10.6,3.79-16.87C138.57,719.34,132.56,725.81,134.79,736.21z"/>
			
				<radialGradient id="XMLID_00000003827758023837362620000005178773438292949664_" cx="-15031.4531" cy="9448.9502" r="269.4846" gradientTransform="matrix(-0.9107 0.413 -0.413 -0.9107 -8961.2002 16106.1328)" gradientUnits="userSpaceOnUse">
				<stop  offset="0" style="stop-color:#FFFFFC"/>
				<stop  offset="0.3553" style="stop-color:#F8F2EE"/>
				<stop  offset="0.5197" style="stop-color:#F3ECE8"/>
				<stop  offset="0.744" style="stop-color:#E5DDD6"/>
				<stop  offset="1" style="stop-color:#CEC3BA"/>
			</radialGradient>
			<path id="XMLID_354_" style="fill:url(#XMLID_00000003827758023837362620000005178773438292949664_);" d="M34.76,971.7
				c-0.24-0.23-0.48-0.42-0.72-0.65C34.05,971.05,33.84,971.38,34.76,971.7z"/>
			
				<radialGradient id="XMLID_00000145056600967015970750000013463913802822268583_" cx="-3269.0337" cy="-1682.4462" r="331.0183" gradientTransform="matrix(0.8764 0.4816 -0.4816 0.8764 3062.4795 3394.5632)" gradientUnits="userSpaceOnUse">
				<stop  offset="0" style="stop-color:#FFFFFC"/>
				<stop  offset="0.3553" style="stop-color:#F8F2EE"/>
				<stop  offset="0.5197" style="stop-color:#F3ECE8"/>
				<stop  offset="0.744" style="stop-color:#E5DDD6"/>
				<stop  offset="1" style="stop-color:#CEC3BA"/>
			</radialGradient>
			<path id="XMLID_345_" style="fill:url(#XMLID_00000145056600967015970750000013463913802822268583_);" d="M48.15,1034.83
				c9.9,18.45,42.08,10.33,42.08,10.33c-34.84,16.84-26.09,29.73-26.09,29.73c28.97-21.06,37.52-8.42,37.52-8.42
				c-22,37.36-11.36,40.14-11.36,40.14c8.84-17.59,61-19.25,61-19.25c-3.55,27.51-30.95,27.57-30.95,27.57s-12.29-2.54,3.06,5.71
				c15.37,8.15,35.73-11.88,35.73-11.88c-2.35,11.01-4.98,16.28-7.28,18.72c44.47-8.71,47.51-22.04,47.51-22.04
				c-0.13,20.21-22.56,36.26-22.56,36.26c35.25-12.23,39.23-36.99,39.66-41.11c-2.7,31.91-8.2,38.48-8.2,38.48
				c16.67-10.98,22.28-20.03,24-25.88c0.06,24.55,12.44,39.29,12.44,39.29c-8.49-19.24,12.31-48.64,12.31-48.64
				c0.06,27.4,12.67,40.69,12.67,40.69c-3.66-27.28,20.39-43.84,20.39-43.84c-1.66,17.35,7.48,34.4,7.48,34.4
				c13.41-36.45,33.28-47.1,33.28-47.1c2.87,25.87-10.06,52.89-10.06,52.89c19.02-15.66,32.29-55.65,32.29-55.65
				c3.58,23.68-3.05,45.5-3.05,45.5c12.89-15.33,16.42-29.88,17.11-39.49c1.06,7.15,3.31,13.89,5.55,19.3
				c-0.58,0.34-0.94,0.51-0.94,0.51c0.34-0.03,0.71-0.15,1.06-0.21c2.97,7.11,5.88,11.84,5.88,11.84
				c-0.22-4.95-0.17-9.47,0.03-13.71c6.87-3.21,14.63-9.63,21.43-16.12c2.2,8.11,3.98,12.49,3.98,12.49
				c-1.17-5.58-1.26-10.83-0.71-15.69c8.24-8.23,14.39-15.7,14.39-15.7c-4.57,10.44,3.39,26.33,3.39,26.33
				c1.16-4.88,2.43-8.57,3.73-11.4c4.31,7.76,9.2,7.69,9.2,7.69c-2.2-5.56-3.57-10.37-4.4-14.63c3.48-2.9,6.27-1.31,6.27-1.31
				c7.36,14.43-12.49,34.35-12.49,34.35c17.68-3.48,36.09-31.47,36.09-31.47c-3.96,20.65,3.45,26.37,3.45,26.37
				c11.82-27.17,20.45-18.43,20.45-18.43c-12.43,25.61-3.89,43.08-3.89,43.08c8.33-36.16,31.03-31.27,31.03-31.27
				c16.36,19.57-0.86,33.26-0.86,33.26c24.67-7.88,14.31-29.83,14.31-29.83c9.18,10.23,6.36,33.81,6.36,33.81
				c4.04-9.19,6.37-17.34,7.65-24.4c1.33-7.4,1.42-13.49,1.02-18.44c5.59,15.98,14.82,23.25,14.82,23.25
				c-4.45-46.67,9.17-38.22,9.17-38.22c13.21-1.68,23.39-2.22,23.39-2.22c33.17,19.1,12.29,44.48,9.08,48.07
				c21.07-22.24,25.5-36.78,25.52-45.07c0.64,0.51,1.59,1.15,2.87,1.92c3.89,10.72,2.49,17.46,2.49,17.46
				c4.47-6,7.46-10.37,9.45-13.57c2.58-0.05,5.16-0.59,7.67-1.43c3,5.01,4.37,9.42,4.72,13.2c0.77-1.85,1.55-3.62,2.32-5.29
				c0.97,0.5,2.93,0.9,5.24-1.55c-1.62,0.32-3.23,0.64-4.96,0.94c3.92-8.3,7.83-14.33,10.99-18.51c0.78-0.69,1.25-1.15,1.25-1.15
				c-2.35,11.01-4.98,16.28-7.28,18.72c6.08-1.19,11.43-2.46,16.05-3.78c-3.12,14.3-10.89,30.04-10.89,30.04
				c10.77-12.46,19.49-24.51,26.59-35.67c14.35-6.59,15.75-12.62,15.75-12.62c-0.13,20.21-22.56,36.26-22.56,36.26
				c35.25-12.23,39.24-36.99,39.66-41.11c-2.7,31.91-8.2,38.48-8.2,38.48c16.67-10.98,22.28-20.04,24-25.88
				c0.06,24.55,12.44,39.29,12.44,39.29c-8.49-19.24,12.31-48.64,12.31-48.64c0.06,27.4,12.67,40.69,12.67,40.69
				c-3.66-27.28,20.39-43.84,20.39-43.84c-1.66,17.35,7.48,34.41,7.48,34.41c13.41-36.45,33.28-47.1,33.28-47.1
				c2.87,25.87-10.06,52.88-10.06,52.88c19.02-15.66,32.29-55.65,32.29-55.65c3.58,23.68-3.05,45.5-3.05,45.5
				c12.89-15.33,16.42-29.88,17.11-39.49c2.48,16.78,11.56,31.43,11.56,31.43c-2.03-44.62,15.6-59.55,15.6-59.55
				c3.64,27.29,9.85,42.21,9.85,42.21c-5.83-27.95,14.47-47.98,14.47-47.98c1.15,39.6,15.53,39.22,15.53,39.22
				c-15.53-39.22,7.37-44.19,7.37-44.19c4.34,25.1,26.27,35.3,26.27,35.3c-13.83-29.19,4.47-46.27,4.47-46.27
				c0.7-0.04,1.27-0.08,1.95-0.12c0.05,0.09,0.16,0.3,0.16,0.3c0.02-0.11,0.05-0.2,0.07-0.32c4.87-0.29,9.24-0.58,13.06-0.86
				c-3.73,8.67-10.05,15.73-10.05,15.73c8.18-2.06,16.22-9.48,22.48-16.8c5.55-0.56,9.26-1.09,11.79-1.56
				c1.31,8.5,4.95,11.2,4.95,11.2c10.39-27.75,19.47-19.46,19.47-19.46c-11.08,26.22-1.65,43.23-1.65,43.23
				c6.44-36.54,29.37-32.84,29.37-32.84c17.35,18.7,0.87,33.26,0.87,33.26c24.22-9.15,12.73-30.53,12.73-30.53
				c9.7,9.74,8.11,33.43,8.11,33.43c3.56-9.39,5.46-17.65,6.37-24.77c0.95-7.46,0.72-13.55,0.06-18.47
				c6.42,15.67,16.01,22.45,16.01,22.45c-6.87-46.38,7.18-38.65,7.18-38.65c13.1-2.36,23.24-3.43,23.24-3.43
				c34.12,17.35,14.57,43.8,11.56,47.54c27.17-31.84,24.1-47.74,21.67-52.94c9.41,15.12,7.83,25.67,7.83,25.67
				c9.36-14.05,11.7-19.45,11.94-21.49c6.32,7.16,9.03,13.4,9.78,18.56c8.37-23.5,18.62-32.99,18.62-32.99
				c14.12,7.72-4.91,51.71-4.91,51.71c42.46-54.62,49.97-100.52,49.97-100.52c14.83,9.24,25.87,41.34,25.87,41.34
				c0.52-14.34-13.41-64.64-13.41-64.64c26.12,14.69,17.97,39.63,17.97,39.63c16.02-29.68,14.85-36.6,12.29-37.93
				c25.15-0.84,34.94,9.41,34.94,9.41c-7.71-24.8-41.43-48.4-41.43-48.4c19.7,12.26,23.74,1.57,23.74,1.57
				c-31.83-35.06-20.24-36.82-20.24-36.82c28,3.21,39.03,35.4,39.03,35.4c-2.48-28.95-27.54-53.02-27.54-53.02
				c20.62,6.57,27.17,24.84,27.17,24.84c-18.31-53.3-45.31-58.83-54.01-59.17c19.73-0.44,25.68,0.53,27.39,1.27
				c-13.05-14.2-30.57-20.85-39.22-23.43c10.86,0.9,18.86-10.6,18.86-10.6c-16.7,2.26-29.33-25.58-29.33-25.58
				c18.49-13.77,40.52-4.27,40.52-4.27c-8.65-19.07-41.3-13.1-41.3-13.1c35.88-14.48,28.01-27.93,28.01-27.93
				c-30.31,19.09-38,5.9-38,5.9c24.43-35.82,14.01-39.3,14.01-39.3c-9.99,16.97-62.15,15.15-62.15,15.15
				c5.37-27.21,32.71-25.45,32.71-25.45s12.09,3.35-2.67-5.9c-14.8-9.15-36.45,9.48-36.45,9.48c3.08-10.83,6.05-15.91,8.51-18.19
				c-44.95,5.74-48.87,18.83-48.87,18.83c1.48-20.15,24.92-34.68,24.92-34.68c-35.98,9.85-41.6,34.29-42.3,38.38
				c4.81-31.65,10.74-37.84,10.74-37.84c-17.36,9.85-23.57,18.51-25.67,24.23c1.58-24.5-9.8-40.03-9.8-40.03
				c7.19,19.76-15.52,47.72-15.52,47.72c1.77-27.34-9.94-41.45-9.94-41.45c1.84,27.47-23.26,42.39-23.26,42.39
				c2.81-17.21-5.18-34.83-5.18-34.83c-15.8,35.47-36.34,44.79-36.34,44.79c-1.14-26,13.55-52.1,13.55-52.1
				c-20.02,14.36-35.92,53.38-35.92,53.38c-2-23.87,6.07-45.19,6.07-45.19c-13.88,14.44-18.37,28.73-19.7,38.26
				c-1.36-16.91-9.44-32.13-9.44-32.13c-0.95,44.66-19.53,58.38-19.53,58.38c-1.82-27.47-7.02-42.77-7.02-42.77
				c3.96,28.27-17.63,46.91-17.63,46.91c1.49-39.59-12.89-40.17-12.89-40.17c12.89,40.17-10.3,43.6-10.3,43.6
				c-2.66-25.33-23.86-36.97-23.86-36.97c11.85,30.05-7.53,45.87-7.53,45.87c-16.7-0.15-27.13,0.11-33.76,0.5
				c2.69-4.91,5.33-8.29,5.33-8.29c-4.75,1.54-9.32,4.97-13.46,9.1c-3.89,0.68-2.88,1.35-2.88,1.35c0.45,0.11,0.8,0.2,1.24,0.31
				c-6.32,6.76-11.47,14.9-14.39,19.96c-0.89,0.19-1.73,0.38-2.54,0.56c0.16-17.24-6.64-21.53-6.64-21.53
				c-8.52,28.37-18.13,20.72-18.13,20.72c9.31-26.9-1.23-43.24-1.23-43.24c-4,36.89-27.12,34.72-27.12,34.72
				c-18.55-17.5-3.08-33.12-3.08-33.12c-23.56,10.74-10.68,31.31-10.68,31.31c-10.33-9.07-10.31-32.82-10.31-32.82
				c-2.93,9.61-4.28,17.97-4.71,25.14c-0.45,7.51,0.18,13.57,1.17,18.43c-7.44-15.2-17.46-21.34-17.46-21.34
				c9.94,45.82-4.59,39.04-4.59,39.04c-12.92,3.23-22.96,4.96-22.96,4.96c-35.22-15.05-17.43-42.77-14.69-46.67
				c-14.67,19.7-19.28,33.2-20.04,42.04c-1.63,0.2-3.14,0.42-4.64,0.64c-3.35-8.17-2.94-13.5-2.94-13.5
				c-4.12,7.18-6.66,12.12-8.23,15.59c-2.44,0.58-4.63,1.18-6.61,1.81c-3.07-3.87-4.98-7.46-6.02-10.72
				c7.23-7.46,15.12-11.81,15.12-11.81c-5.47,1.2-10.21,2.78-14.43,4.58c0.91-3.7,1.75-7.66,2.48-11.95c0,0-4.5,4.8-4.31,12.79
				c-10.79,5-17.53,11.53-21.66,17.38c0.67-6.92,2.32-14.26,3.9-20.08c1.53-2.92,2.48-3.83,2.48-3.83c-0.59,0.3-1.09,0.59-1.65,0.88
				c1.39-4.8,2.53-8.04,2.53-8.04c-2.33,3.45-4.53,6.86-6.62,10.23c-13.58,7.75-19.03,14.84-21.15,19.79
				c2.84-24.38-7.71-40.49-7.71-40.49c6.16,20.11-17.98,46.84-17.98,46.84c3.18-27.21-7.77-41.91-7.77-41.91
				c0.41,27.52-25.43,41.12-25.43,41.12c3.7-17.04-3.36-35.05-3.36-35.05c-17.62,34.61-38.61,42.84-38.61,42.84
				c0.21-26.02,16.24-51.32,16.24-51.32c-20.74,13.3-38.65,51.44-38.65,51.44c-0.76-23.94,8.41-44.82,8.41-44.82
				c-14.61,13.7-19.84,27.73-21.66,37.19c-0.48-16.96-7.76-32.58-7.76-32.58c-3.27,44.55-22.53,57.29-22.53,57.29
				c-0.39-27.53-4.79-43.08-4.79-43.08c0.6,6.83-0.27,13-1.9,18.48c-0.87-6.5-3.82-11.25-3.82-11.25
				c-2.1,9.42-9.44,14.69-14.34,17.25c-1.29-10.51-4.58-15.34-7.2-17.51c2.44-10.61,10.99-16.06,10.99-16.06
				c-11.37,2.31-26.71,21.52-35.15,33.24c-3.22-4.84-6.77-8.44-9.49-10.79c-1.66-3.51-3.2-5.91-3.2-5.91
				c-0.13,1.1-0.28,2.07-0.43,3.05c-0.46-0.32-0.75-0.5-0.75-0.5c0.22,0.66,0.35,1.27,0.55,1.92c-3.44,20.35-11.76,16.8-11.76,16.8
				c-9.01-13.46,8.35-35.58,8.35-35.58c-17.15,5.55-32.11,35.52-32.11,35.52c1.49-20.98-6.55-25.77-6.55-25.77
				c-8.52,28.37-18.13,20.72-18.13,20.72c9.31-26.9-1.23-43.24-1.23-43.24c-4,36.89-27.12,34.72-27.12,34.72
				c-18.56-17.5-3.08-33.12-3.08-33.12c-23.56,10.74-10.68,31.31-10.68,31.31c-10.33-9.07-10.31-32.82-10.31-32.82
				c-2.93,9.61-4.28,17.97-4.71,25.14c-0.45,7.51,0.18,13.57,1.17,18.43c-7.44-15.21-17.46-21.34-17.46-21.34
				c9.94,45.82-4.59,39.04-4.59,39.04c-12.92,3.23-22.96,4.96-22.96,4.96c-35.22-15.05-17.43-42.76-14.69-46.67
				c-25,33.59-20.88,49.24-18.11,54.27c-10.4-14.46-9.51-25.09-9.51-25.09c-8.4,14.64-10.38,20.19-10.48,22.24
				c-6.79-6.72-9.9-12.77-11-17.87c-6.79,24-16.39,34.16-16.39,34.16c-14.6-6.76,1.46-51.92,1.46-51.92
				c-38.73,57.32-43.17,103.62-43.17,103.62c-15.41-8.24-28.56-39.53-28.56-39.53c0.43,14.34,17.68,63.6,17.68,63.6
				c-27.04-12.92-20.57-38.35-20.57-38.35c-14.01,30.68-12.38,37.5-9.74,38.67C10.45,848.97,0,839.39,0,839.39
				c9.34,24.24,44.56,45.53,44.56,45.53c-20.47-10.93-23.8,0.01-23.8,0.01c34.09,32.87,22.65,35.39,22.65,35.39
				c-28.15-1.34-41.3-32.73-41.3-32.73c4.41,28.72,31.01,51.07,31.01,51.07c-21.01-5.18-28.76-22.98-28.76-22.98
				c21.81,51.95,49.1,55.68,57.82,55.45c-19.65,1.75-25.66,1.17-27.41,0.56c13.97,13.3,31.89,18.77,40.69,20.77
				c-10.89-0.17-18.12,11.83-18.12,11.83c16.51-3.37,30.96,23.57,30.96,23.57C70.76,1042.84,48.15,1034.83,48.15,1034.83z
				 M378.96,1105.49c0.89-11.6,3.21-20.42,5.8-26.91C388.36,1091.77,383.71,1100.47,378.96,1105.49z M621.06,1081.3
				c-0.19-1.96-0.61-3.45-1.04-4.51c0.87,1.57,1.7,3.11,2.36,4.56C621.91,1081.31,621.48,1081.29,621.06,1081.3z M993.52,991.19
				c0.42,1.47,0.62,2.97,0.64,4.5C990.47,993.65,991.8,992.1,993.52,991.19z M1015.39,1001.51c-2.48-0.46-4.73-0.9-6.73-1.34
				c4.44-5.91,7.22-10.63,7.22-10.63C1015.22,994.34,1015.16,998.23,1015.39,1001.51z M869.2,686.49c-1.09-2.87-2.32-5.39-3.28-7.12
				C876.26,683.61,871.67,685.76,869.2,686.49z M852.84,675.18c4.81,1.3,8.49,2.47,11.3,3.52c-0.49,3.58-1.1,6.56-1.82,8.96
				c-4.68,0.72-9.05,1.41-12.88,2.06C849.26,684.84,850.83,679.68,852.84,675.18z M637.48,707.31c-1.96,6.14-4.06,11.25-6.06,15.39
				c-2.92,2.33-3.57,4.05-3.57,4.05C628.8,719.19,632.83,712.6,637.48,707.31z"/>
			
				<radialGradient id="XMLID_00000104685115538235393550000008903685904125147265_" cx="-15031.9082" cy="9448.9307" r="269.5864" gradientTransform="matrix(-0.9107 0.413 -0.413 -0.9107 -8961.2002 16106.1328)" gradientUnits="userSpaceOnUse">
				<stop  offset="0" style="stop-color:#FFFFFC"/>
				<stop  offset="0.3553" style="stop-color:#F8F2EE"/>
				<stop  offset="0.5197" style="stop-color:#F3ECE8"/>
				<stop  offset="0.744" style="stop-color:#E5DDD6"/>
				<stop  offset="1" style="stop-color:#CEC3BA"/>
			</radialGradient>
			<path id="XMLID_344_" style="fill:url(#XMLID_00000104685115538235393550000008903685904125147265_);" d="M151.88,1127.48
				c-1.93,0.38-3.81,0.76-5.9,1.12C145.98,1128.6,148.58,1131,151.88,1127.48z"/>
			
				<radialGradient id="XMLID_00000003786501833247706500000012161854697744937889_" cx="-15031.9355" cy="9448.9746" r="269.5766" gradientTransform="matrix(-0.9107 0.413 -0.413 -0.9107 -8961.2002 16106.1328)" gradientUnits="userSpaceOnUse">
				<stop  offset="0" style="stop-color:#FFFFFC"/>
				<stop  offset="0.3553" style="stop-color:#F8F2EE"/>
				<stop  offset="0.5197" style="stop-color:#F3ECE8"/>
				<stop  offset="0.744" style="stop-color:#E5DDD6"/>
				<stop  offset="1" style="stop-color:#CEC3BA"/>
			</radialGradient>
			<path id="XMLID_343_" style="fill:url(#XMLID_00000003786501833247706500000012161854697744937889_);" d="M642.58,1117.34
				c0,0,6.74-5.71,5.76-16.31C646.33,1105.85,644.37,1111.24,642.58,1117.34z"/>
			
				<radialGradient id="XMLID_00000157296695070714564480000010379638549790369202_" cx="-15031.9697" cy="9448.8223" r="269.7227" gradientTransform="matrix(-0.9107 0.413 -0.413 -0.9107 -8961.2002 16106.1328)" gradientUnits="userSpaceOnUse">
				<stop  offset="0" style="stop-color:#FFFFFC"/>
				<stop  offset="0.3553" style="stop-color:#F8F2EE"/>
				<stop  offset="0.5197" style="stop-color:#F3ECE8"/>
				<stop  offset="0.744" style="stop-color:#E5DDD6"/>
				<stop  offset="1" style="stop-color:#CEC3BA"/>
			</radialGradient>
			<path id="XMLID_342_" style="fill:url(#XMLID_00000157296695070714564480000010379638549790369202_);" d="M595.62,1128.53
				c-0.15,0.16-0.27,0.31-0.42,0.47C595.2,1128.99,595.37,1128.81,595.62,1128.53z"/>
		</g>
		<g id="XMLID_320_">
			
				<radialGradient id="XMLID_00000116949535882787087050000004867734045234031744_" cx="-15484.5068" cy="9612.457" r="5.8419" gradientTransform="matrix(-0.9107 0.413 -0.4075 -0.8986 -9002.0068 16016.001)" gradientUnits="userSpaceOnUse">
				<stop  offset="0" style="stop-color:#FFFFFC"/>
				<stop  offset="0.4315" style="stop-color:#F8F2EE"/>
				<stop  offset="0.6256" style="stop-color:#F3EDE8"/>
				<stop  offset="0.89" style="stop-color:#E5DDD6"/>
				<stop  offset="1" style="stop-color:#DED5CD"/>
			</radialGradient>
			<path id="XMLID_340_" style="fill:url(#XMLID_00000116949535882787087050000004867734045234031744_);" d="M1185.65,974.39
				c-1.69,4.65-3.32,9.84-4.75,15.7C1180.9,990.09,1187.06,984.34,1185.65,974.39z"/>
			
				<radialGradient id="XMLID_00000145033363358795642170000001260191299369007530_" cx="-15680.6973" cy="9771.3975" r="0.3391" gradientTransform="matrix(-0.9107 0.413 -0.4075 -0.8986 -9002.0068 16016.001)" gradientUnits="userSpaceOnUse">
				<stop  offset="0" style="stop-color:#FFFFFC"/>
				<stop  offset="0.4315" style="stop-color:#F8F2EE"/>
				<stop  offset="0.6256" style="stop-color:#F3EDE8"/>
				<stop  offset="0.89" style="stop-color:#E5DDD6"/>
				<stop  offset="1" style="stop-color:#DED5CD"/>
			</radialGradient>
			<path id="XMLID_339_" style="fill:url(#XMLID_00000145033363358795642170000001260191299369007530_);" d="M1296.83,758.06
				c0.21,0.23,0.43,0.43,0.64,0.66C1297.47,758.72,1297.68,758.42,1296.83,758.06z"/>
			
				<radialGradient id="XMLID_00000101078907112528911580000014879934167084867252_" cx="-15433.1523" cy="9612.5078" r="0.2113" gradientTransform="matrix(-0.9107 0.413 -0.4075 -0.8986 -9002.0068 16016.001)" gradientUnits="userSpaceOnUse">
				<stop  offset="0" style="stop-color:#FFFFFC"/>
				<stop  offset="0.4315" style="stop-color:#F8F2EE"/>
				<stop  offset="0.6256" style="stop-color:#F3EDE8"/>
				<stop  offset="0.89" style="stop-color:#E5DDD6"/>
				<stop  offset="1" style="stop-color:#DED5CD"/>
			</radialGradient>
			<path id="XMLID_338_" style="fill:url(#XMLID_00000101078907112528911580000014879934167084867252_);" d="M1136.67,1003.18
				c-0.14,0.16-0.24,0.3-0.38,0.46C1136.29,1003.64,1136.45,1003.45,1136.67,1003.18z"/>
			
				<radialGradient id="XMLID_00000121239396803923385640000003989134672726693521_" cx="-15654.9658" cy="9955.2598" r="2.0729" gradientTransform="matrix(-0.9107 0.413 -0.4075 -0.8986 -9002.0068 16016.001)" gradientUnits="userSpaceOnUse">
				<stop  offset="0" style="stop-color:#FFFFFC"/>
				<stop  offset="0.4315" style="stop-color:#F8F2EE"/>
				<stop  offset="0.6256" style="stop-color:#F3EDE8"/>
				<stop  offset="0.89" style="stop-color:#E5DDD6"/>
				<stop  offset="1" style="stop-color:#DED5CD"/>
			</radialGradient>
			<path id="XMLID_337_" style="fill:url(#XMLID_00000121239396803923385640000003989134672726693521_);" d="M1196.07,604.31
				c1.86-0.24,3.68-0.5,5.68-0.71C1201.76,603.6,1199.45,601.19,1196.07,604.31z"/>
			
				<radialGradient id="XMLID_00000080915880236594200080000015930962385268928388_" cx="-15169.2998" cy="10108.3994" r="0.2077" gradientTransform="matrix(-0.9107 0.413 -0.4075 -0.8986 -9002.0068 16016.001)" gradientUnits="userSpaceOnUse">
				<stop  offset="0" style="stop-color:#FFFFFC"/>
				<stop  offset="0.4315" style="stop-color:#F8F2EE"/>
				<stop  offset="0.6256" style="stop-color:#F3EDE8"/>
				<stop  offset="0.89" style="stop-color:#E5DDD6"/>
				<stop  offset="1" style="stop-color:#DED5CD"/>
			</radialGradient>
			<path id="XMLID_336_" style="fill:url(#XMLID_00000080915880236594200080000015930962385268928388_);" d="M693.96,667
				c0.12-0.16,0.22-0.31,0.34-0.48C694.3,666.52,694.16,666.71,693.96,667z"/>
			
				<radialGradient id="XMLID_00000096737508948253083610000003679737175561193662_" cx="-14717.5" cy="10278.3613" r="0.2081" gradientTransform="matrix(-0.9107 0.413 -0.4075 -0.8986 -9002.0068 16016.001)" gradientUnits="userSpaceOnUse">
				<stop  offset="0" style="stop-color:#FFFFFC"/>
				<stop  offset="0.4315" style="stop-color:#F8F2EE"/>
				<stop  offset="0.6256" style="stop-color:#F3EDE8"/>
				<stop  offset="0.89" style="stop-color:#E5DDD6"/>
				<stop  offset="1" style="stop-color:#DED5CD"/>
			</radialGradient>
			<path id="XMLID_335_" style="fill:url(#XMLID_00000096737508948253083610000003679737175561193662_);" d="M213.25,700.87
				c0.12-0.16,0.22-0.31,0.34-0.48C213.59,700.39,213.45,700.58,213.25,700.87z"/>
			
				<radialGradient id="XMLID_00000121976485883454616270000014260669995521127086_" cx="-14666.252" cy="10274.9951" r="5.8418" gradientTransform="matrix(-0.9107 0.413 -0.4075 -0.8986 -9002.0068 16016.001)" gradientUnits="userSpaceOnUse">
				<stop  offset="0" style="stop-color:#FFFFFC"/>
				<stop  offset="0.4315" style="stop-color:#F8F2EE"/>
				<stop  offset="0.6256" style="stop-color:#F3EDE8"/>
				<stop  offset="0.89" style="stop-color:#E5DDD6"/>
				<stop  offset="1" style="stop-color:#DED5CD"/>
			</radialGradient>
			<path id="XMLID_334_" style="fill:url(#XMLID_00000121976485883454616270000014260669995521127086_);" d="M166.27,732.81
				c1.38-4.75,2.65-10.03,3.69-15.96C169.96,716.84,164.2,722.98,166.27,732.81z"/>
			
				<radialGradient id="XMLID_00000155110364465004103960000009046231004589830531_" cx="-14481.0742" cy="10103.3594" r="0.3387" gradientTransform="matrix(-0.9107 0.413 -0.4075 -0.8986 -9002.0068 16016.001)" gradientUnits="userSpaceOnUse">
				<stop  offset="0" style="stop-color:#FFFFFC"/>
				<stop  offset="0.4315" style="stop-color:#F8F2EE"/>
				<stop  offset="0.6256" style="stop-color:#F3EDE8"/>
				<stop  offset="0.89" style="stop-color:#E5DDD6"/>
				<stop  offset="1" style="stop-color:#DED5CD"/>
			</radialGradient>
			<path id="XMLID_333_" style="fill:url(#XMLID_00000155110364465004103960000009046231004589830531_);" d="M69.78,955.84
				c-0.22-0.21-0.46-0.4-0.68-0.61C69.1,955.23,68.91,955.54,69.78,955.84z"/>
			
				<radialGradient id="XMLID_00000096781243298356168450000003169272666052433854_" cx="-3310.479" cy="-1081.5278" r="526.2757" gradientTransform="matrix(0.8764 0.4816 -0.4816 0.8764 3062.4795 3394.5632)" gradientUnits="userSpaceOnUse">
				<stop  offset="0" style="stop-color:#FFFFFC"/>
				<stop  offset="0.4315" style="stop-color:#F8F2EE"/>
				<stop  offset="0.6256" style="stop-color:#F3EDE8"/>
				<stop  offset="0.89" style="stop-color:#E5DDD6"/>
				<stop  offset="1" style="stop-color:#DED5CD"/>
			</radialGradient>
			<path id="XMLID_324_" style="fill:url(#XMLID_00000096781243298356168450000003169272666052433854_);" d="M82.25,1015.44
				c9.35,17.39,40.07,9.56,40.07,9.56c-33.3,16.08-25.02,28.22-25.02,28.22c27.72-20.04,35.82-8.14,35.82-8.14
				c-21.15,35.42-11.02,37.99-11.02,37.99c8.51-16.67,58.25-18.48,58.25-18.48c-3.52,26.02-29.64,26.21-29.64,26.21
				s-11.71-2.34,2.89,5.38c14.62,7.63,34.13-11.4,34.13-11.4c-2.29,10.42-4.83,15.41-7.03,17.73c42.44-8.45,45.41-21.05,45.41-21.05
				c-0.22,19.1-21.69,34.38-21.69,34.38c33.67-11.72,37.58-35.15,38.01-39.05c-2.72,30.17-8,36.41-8,36.41
				c15.95-10.46,21.34-19.04,23.01-24.58c-0.06,23.2,11.68,37.07,11.68,37.07c-8.01-18.14,11.97-46.03,11.97-46.03
				c-0.08,25.89,11.89,38.4,11.89,38.4c-3.36-25.77,19.65-41.53,19.65-41.53c-1.67,16.41,6.97,32.48,6.97,32.48
				c12.96-34.51,31.95-44.68,31.95-44.68c2.61,24.43-9.84,50.03-9.84,50.03c18.21-14.89,31.06-52.75,31.06-52.75
				c3.31,22.36-3.13,43.01-3.13,43.01c12.36-14.55,15.8-28.32,16.5-37.4c0.98,6.75,3.09,13.11,5.2,18.21
				c-0.55,0.32-0.89,0.49-0.89,0.49c0.32-0.03,0.68-0.15,1.01-0.2c2.8,6.71,5.55,11.16,5.55,11.16c-0.19-4.68-0.12-8.95,0.1-12.96
				c6.57-3.07,14-9.17,20.51-15.34c2.06,7.66,3.74,11.78,3.74,11.78c-1.08-5.27-1.15-10.23-0.6-14.82
				c7.9-7.82,13.79-14.91,13.79-14.91c-4.4,9.88,3.11,24.87,3.11,24.87c1.13-4.62,2.36-8.11,3.61-10.79
				c4.07,7.31,8.74,7.22,8.74,7.22c-2.07-5.25-3.35-9.78-4.12-13.81c3.34-2.76,5.99-1.26,5.99-1.26
				c6.95,13.6-12.08,32.52-12.08,32.52c16.88-3.37,34.56-29.92,34.56-29.92c-3.88,19.54,3.17,24.9,3.17,24.9
				c11.4-25.73,19.59-17.51,19.59-17.51c-11.97,24.26-3.92,40.74-3.92,40.74c8.12-34.21,29.74-29.7,29.74-29.7
				c15.5,18.42-0.98,31.43-0.98,31.43c23.56-7.56,13.78-28.26,13.78-28.26c8.71,9.63,5.9,31.92,5.9,31.92
				c3.9-8.71,6.16-16.42,7.41-23.1c1.31-7,1.42-12.76,1.06-17.43c5.26,15.07,14.02,21.91,14.02,21.91
				c-4.02-44.09,8.93-36.17,8.93-36.17c12.6-1.65,22.31-2.2,22.31-2.2c31.53,17.89,11.5,41.98,8.43,45.39
				c20.2-21.12,24.49-34.88,24.54-42.72c0.61,0.48,1.51,1.08,2.72,1.8c3.66,10.11,2.29,16.49,2.29,16.49
				c4.29-5.7,7.16-9.84,9.07-12.87c2.46-0.06,4.93-0.58,7.32-1.39c2.84,4.72,4.12,8.88,4.44,12.46c0.74-1.75,1.49-3.43,2.24-5.01
				c0.92,0.46,2.79,0.84,5-1.49c-1.55,0.31-3.08,0.62-4.73,0.91c3.77-7.86,7.53-13.58,10.57-17.55c0.74-0.66,1.19-1.09,1.19-1.09
				c-2.29,10.42-4.83,15.41-7.03,17.73c5.81-1.16,10.91-2.38,15.33-3.65c-3.04,13.53-10.53,28.44-10.53,28.44
				c10.33-11.83,18.7-23.26,25.53-33.84c13.72-6.3,15.08-12,15.08-12c-0.22,19.1-21.69,34.38-21.69,34.38
				c33.67-11.72,37.59-35.15,38.01-39.05c-2.73,30.17-8.01,36.41-8.01,36.41c15.95-10.46,21.34-19.04,23.01-24.58
				c-0.06,23.2,11.68,37.07,11.68,37.07c-8.01-18.14,11.97-46.03,11.97-46.03c-0.08,25.89,11.89,38.4,11.89,38.4
				c-3.36-25.77,19.65-41.53,19.65-41.53c-1.67,16.41,6.97,32.48,6.97,32.48c12.96-34.51,31.95-44.68,31.95-44.68
				c2.62,24.43-9.84,50.03-9.84,50.03c18.21-14.89,31.06-52.75,31.06-52.75c3.31,22.36-3.13,43.01-3.13,43.01
				c12.36-14.55,15.8-28.32,16.5-37.4c2.29,15.85,10.87,29.65,10.87,29.65c-1.72-42.16,15.16-56.35,15.16-56.35
				c3.34,25.78,9.19,39.84,9.19,39.84c-5.43-26.39,14.03-45.42,14.03-45.42c0.9,37.42,14.62,36.99,14.62,36.99
				c-14.62-36.99,7.24-41.8,7.24-41.8c4.01,23.7,24.88,33.23,24.88,33.23c-13.04-27.52,4.48-43.75,4.48-43.75
				c0.66-0.04,1.21-0.08,1.86-0.12c0.05,0.09,0.15,0.28,0.15,0.28c0.02-0.11,0.04-0.19,0.06-0.3c4.64-0.3,8.81-0.59,12.45-0.88
				c-3.6,8.21-9.66,14.92-9.66,14.92c7.81-1.98,15.51-9.04,21.51-15.99c5.3-0.56,8.83-1.07,11.25-1.53
				c1.21,8.03,4.67,10.56,4.67,10.56c10.04-26.27,18.65-18.49,18.65-18.49c-10.69,24.83-1.78,40.86-1.78,40.86
				c6.32-34.57,28.16-31.18,28.16-31.18c16.45,17.59,0.67,31.43,0.67,31.43c23.14-8.76,12.29-28.92,12.29-28.92
				c9.2,9.16,7.57,31.55,7.57,31.55c3.44-8.89,5.29-16.71,6.19-23.44c0.94-7.06,0.75-12.81,0.15-17.45
				c6.04,14.78,15.15,21.14,15.15,21.14c-6.33-43.8,7.03-36.56,7.03-36.56c12.5-2.29,22.18-3.35,22.18-3.35
				c32.45,16.24,13.68,41.33,10.8,44.87c26.06-30.23,23.21-45.23,20.92-50.14c8.9,14.25,7.34,24.22,7.34,24.22
				c8.99-13.32,11.25-18.44,11.48-20.37c6,6.73,8.55,12.62,9.24,17.5c8.1-22.25,17.91-31.27,17.91-31.27
				c13.42,7.23-4.93,48.89-4.93,48.89c40.74-51.82,48.12-95.24,48.12-95.24c14.09,8.67,24.47,38.95,24.47,38.95
				c0.57-13.55-12.47-61.02-12.47-61.02c24.83,13.76,16.95,37.37,16.95,37.37c15.42-28.13,14.34-34.66,11.9-35.91
				c23.99-0.91,33.27,8.72,33.27,8.72c-7.23-23.41-39.27-45.54-39.27-45.54c18.72,11.5,22.63,1.37,22.63,1.37
				c-30.18-32.98-19.12-34.7-19.12-34.7c26.68,2.9,37.05,33.27,37.05,33.27c-2.23-27.35-26.01-49.98-26.01-49.98
				c19.63,6.11,25.79,23.35,25.79,23.35c-17.21-50.29-42.92-55.38-51.21-55.66c18.82-0.51,24.49,0.38,26.11,1.07
				c-12.38-13.36-29.05-19.56-37.28-21.96c10.35,0.8,18.04-10.11,18.04-10.11c-15.93,2.22-27.84-24.03-27.84-24.03
				c17.7-13.1,38.65-4.23,38.65-4.23c-8.15-17.98-39.32-12.19-39.32-12.19c34.28-13.86,26.84-26.53,26.84-26.53
				c-28.99,18.18-36.26,5.76-36.26,5.76c23.47-33.97,13.54-37.21,13.54-37.21c-9.6,16.08-59.33,14.61-59.33,14.61
				c5.25-25.74,31.31-24.21,31.31-24.21s11.51,3.11-2.52-5.56c-14.06-8.58-34.79,9.13-34.79,9.13c2.99-10.25,5.85-15.07,8.2-17.24
				c-42.88,5.63-46.69,18.03-46.69,18.03c1.51-19.05,23.93-32.9,23.93-32.9c-34.35,9.48-39.83,32.6-40.52,36.48
				c4.74-29.93,10.42-35.82,10.42-35.82c-16.6,9.39-22.56,17.61-24.59,23.02c1.62-23.16-9.16-37.79-9.16-37.79
				c6.77,18.64-15.03,45.17-15.03,45.17c1.81-25.85-9.28-39.12-9.28-39.12c1.62,25.95-22.38,40.17-22.38,40.17
				c2.77-16.28-4.77-32.89-4.77-32.89c-15.24,33.6-34.86,42.5-34.86,42.5c-0.97-24.57,13.17-49.3,13.17-49.3
				c-19.16,13.67-34.51,50.62-34.51,50.62c-1.8-22.55,6.01-42.74,6.01-42.74c-13.3,13.72-17.65,27.24-18.96,36.26
				c-1.22-15.97-8.85-30.32-8.85-30.32c-1.12,42.21-18.9,55.27-18.9,55.27c-1.6-25.96-6.49-40.39-6.49-40.39
				c3.64,26.7-17.04,44.42-17.04,44.42c1.61-37.43-12.1-37.9-12.1-37.9c12.1,37.9-10.02,41.26-10.02,41.26
				c-2.41-23.93-22.58-34.82-22.58-34.82c11.16,28.34-7.4,43.39-7.4,43.39c-15.92-0.06-25.87,0.23-32.19,0.64
				c2.59-4.65,5.12-7.86,5.12-7.86c-4.54,1.47-8.9,4.74-12.87,8.66c-3.72,0.66-2.75,1.29-2.75,1.29c0.43,0.1,0.76,0.19,1.18,0.29
				c-6.06,6.41-11,14.14-13.81,18.93c-0.85,0.18-1.66,0.36-2.42,0.54c0.23-16.3-6.22-20.31-6.22-20.31
				c-8.26,26.86-17.39,19.66-17.39,19.66c9.01-25.47-0.96-40.86-0.96-40.86c-3.99,34.88-26.02,32.94-26.02,32.94
				c-17.61-16.45-2.78-31.29-2.78-31.29c-22.52,10.26-10.33,29.64-10.33,29.64c-9.8-8.53-9.68-30.96-9.68-30.96
				c-2.84,9.09-4.16,17.01-4.61,23.78c-0.46,7.1,0.11,12.82,1.02,17.41c-7.02-14.33-16.55-20.08-16.55-20.08
				c9.26,43.26-4.56,36.92-4.56,36.92c-12.33,3.11-21.92,4.8-21.92,4.8c-33.51-14.06-16.41-40.33-13.78-44.04
				c-14.08,18.69-18.54,31.47-19.31,39.83c-1.55,0.19-3,0.41-4.43,0.63c-3.15-7.71-2.74-12.75-2.74-12.75
				c-3.96,6.8-6.41,11.48-7.92,14.77c-2.33,0.56-4.42,1.14-6.31,1.74c-2.91-3.64-4.71-7.03-5.69-10.1
				c6.93-7.09,14.47-11.24,14.47-11.24c-5.22,1.16-9.75,2.67-13.78,4.4c0.88-3.5,1.71-7.25,2.42-11.3c0,0-4.31,4.56-4.17,12.11
				c-10.31,4.77-16.77,10.98-20.74,16.53c0.67-6.54,2.28-13.49,3.81-19c1.47-2.77,2.38-3.63,2.38-3.63
				c-0.57,0.28-1.04,0.56-1.58,0.84c1.35-4.55,2.45-7.61,2.45-7.61c-2.24,3.27-4.35,6.51-6.36,9.7
				c-12.98,7.39-18.22,14.11-20.26,18.8c2.83-23.06-7.16-38.23-7.16-38.23c5.78,18.97-17.37,44.36-17.37,44.36
				c3.17-25.73-7.21-39.57-7.21-39.57c0.26,26.01-24.44,38.99-24.44,38.99c3.61-16.12-3.04-33.11-3.04-33.11
				c-16.97,32.79-37.02,40.67-37.02,40.67c0.32-24.6,15.73-48.58,15.73-48.58c-19.84,12.67-37.09,48.8-37.09,48.8
				c-0.61-22.62,8.23-42.39,8.23-42.39c-13.99,13.02-19.04,26.3-20.83,35.25c-0.38-16.02-7.24-30.75-7.24-30.75
				c-3.33,42.12-21.76,54.25-21.76,54.25c-0.24-26.02-4.36-40.69-4.36-40.69c0.54,6.45-0.32,12.29-1.9,17.47
				c-0.8-6.14-3.59-10.61-3.59-10.61c-2.04,8.91-9.07,13.93-13.75,16.37c-1.18-9.93-4.29-14.47-6.78-16.51
				c2.38-10.04,10.55-15.23,10.55-15.23c-10.85,2.24-25.57,20.46-33.67,31.58c-3.05-4.56-6.42-7.94-9-10.15
				c-1.56-3.31-3.03-5.57-3.03-5.57c-0.12,1.04-0.28,1.95-0.42,2.89c-0.44-0.3-0.71-0.47-0.71-0.47c0.21,0.62,0.33,1.2,0.51,1.81
				c-3.38,19.25-11.29,15.93-11.29,15.93c-8.53-12.68,8.13-33.67,8.13-33.67c-16.38,5.32-30.79,33.72-30.79,33.72
				c1.52-19.83-6.12-24.33-6.12-24.33c-8.26,26.86-17.38,19.67-17.38,19.67c9.01-25.47-0.96-40.86-0.96-40.86
				c-3.99,34.88-26.02,32.94-26.02,32.94c-17.61-16.45-2.78-31.29-2.78-31.29c-22.52,10.26-10.33,29.64-10.33,29.64
				c-9.8-8.52-9.68-30.96-9.68-30.96c-2.83,9.09-4.16,17.01-4.61,23.78c-0.46,7.1,0.11,12.82,1.02,17.41
				c-7.02-14.33-16.55-20.08-16.55-20.08c9.26,43.26-4.56,36.92-4.56,36.92c-12.33,3.11-21.92,4.8-21.92,4.8
				c-33.51-14.06-16.41-40.33-13.78-44.04c-24,31.86-20.14,46.64-17.52,51.38c-9.85-13.62-8.95-23.67-8.95-23.67
				c-8.08,13.88-9.99,19.13-10.1,21.06c-6.44-6.32-9.38-12.02-10.4-16.84c-6.59,22.72-15.79,32.36-15.79,32.36
				c-13.89-6.32,1.64-49.08,1.64-49.08c-37.2,54.36-41.66,98.14-41.66,98.14C95.81,806.52,83.42,777,83.42,777
				c0.34,13.55,16.55,60.03,16.55,60.03c-25.72-12.09-19.43-36.14-19.43-36.14c-13.51,29.06-11.99,35.5-9.47,36.59
				c-23.89,2.49-33.81-6.51-33.81-6.51c8.79,22.86,42.27,42.82,42.27,42.82c-19.46-10.23-22.69,0.12-22.69,0.12
				c32.35,30.9,21.42,33.34,21.42,33.34c-26.84-1.13-39.22-30.74-39.22-30.74c4.06,27.13,29.32,48.12,29.32,48.12
				c-20.01-4.8-27.32-21.58-27.32-21.58c20.55,48.99,46.55,52.39,54.86,52.13c-18.75,1.75-24.47,1.23-26.14,0.66
				c13.26,12.51,30.31,17.59,38.7,19.43c-10.38-0.11-17.33,11.27-17.33,11.27c15.76-3.26,29.41,22.13,29.41,22.13
				C103.76,1022.9,82.25,1015.44,82.25,1015.44z M397.32,1080.64c0.9-10.97,3.15-19.31,5.66-25.46
				C406.35,1067.63,401.87,1075.87,397.32,1080.64z M628.26,1056.63c-0.17-1.85-0.57-3.26-0.97-4.26c0.82,1.48,1.6,2.93,2.23,4.3
				C629.07,1056.62,628.66,1056.61,628.26,1056.63z M983.82,969.68c0.4,1.38,0.58,2.81,0.58,4.25
				C980.9,972.02,982.17,970.55,983.82,969.68z M1004.62,979.33c-2.36-0.42-4.5-0.83-6.41-1.23c4.26-5.6,6.94-10.08,6.94-10.08
				C1004.49,972.55,1004.41,976.23,1004.62,979.33z M866.73,682.31c-1.02-2.7-2.19-5.08-3.09-6.71
				C873.48,679.55,869.1,681.6,866.73,682.31z M851.2,671.7c4.58,1.2,8.08,2.29,10.76,3.27c-0.48,3.39-1.08,6.2-1.77,8.48
				c-4.46,0.7-8.64,1.38-12.29,2.01C847.73,680.84,849.26,675.96,851.2,671.7z M645.7,703.09c-1.9,5.81-3.92,10.65-5.85,14.57
				c-2.8,2.22-3.42,3.84-3.42,3.84C637.37,714.37,641.24,708.11,645.7,703.09z"/>
			
				<radialGradient id="XMLID_00000155841624948442492960000015272251326824491179_" cx="-14518.958" cy="9921.5371" r="2.0808" gradientTransform="matrix(-0.9107 0.413 -0.4075 -0.8986 -9002.0068 16016.001)" gradientUnits="userSpaceOnUse">
				<stop  offset="0" style="stop-color:#FFFFFC"/>
				<stop  offset="0.4315" style="stop-color:#F8F2EE"/>
				<stop  offset="0.6256" style="stop-color:#F3EDE8"/>
				<stop  offset="0.89" style="stop-color:#E5DDD6"/>
				<stop  offset="1" style="stop-color:#DED5CD"/>
			</radialGradient>
			<path id="XMLID_323_" style="fill:url(#XMLID_00000155841624948442492960000015272251326824491179_);" d="M180.7,1102.51
				c-1.84,0.37-3.64,0.74-5.63,1.08C175.07,1103.6,177.54,1105.85,180.7,1102.51z"/>
			
				<radialGradient id="XMLID_00000116915982846814212580000013038087688516715691_" cx="-14958.541" cy="9742.2295" r="5.8422" gradientTransform="matrix(-0.9107 0.413 -0.4075 -0.8986 -9002.0068 16016.001)" gradientUnits="userSpaceOnUse">
				<stop  offset="0" style="stop-color:#FFFFFC"/>
				<stop  offset="0.4315" style="stop-color:#F8F2EE"/>
				<stop  offset="0.6256" style="stop-color:#F3EDE8"/>
				<stop  offset="0.89" style="stop-color:#E5DDD6"/>
				<stop  offset="1" style="stop-color:#DED5CD"/>
			</radialGradient>
			<path id="XMLID_322_" style="fill:url(#XMLID_00000116915982846814212580000013038087688516715691_);" d="M648.61,1090.58
				c0,0,6.45-5.43,5.57-15.44C652.24,1079.71,650.35,1084.81,648.61,1090.58z"/>
			
				<radialGradient id="XMLID_00000159457755046097322060000008410225556762376074_" cx="-14907.2598" cy="9744.9492" r="0.2127" gradientTransform="matrix(-0.9107 0.413 -0.4075 -0.8986 -9002.0068 16016.001)" gradientUnits="userSpaceOnUse">
				<stop  offset="0" style="stop-color:#FFFFFC"/>
				<stop  offset="0.4315" style="stop-color:#F8F2EE"/>
				<stop  offset="0.6256" style="stop-color:#F3EDE8"/>
				<stop  offset="0.89" style="stop-color:#E5DDD6"/>
				<stop  offset="1" style="stop-color:#DED5CD"/>
			</radialGradient>
			<path id="XMLID_321_" style="fill:url(#XMLID_00000159457755046097322060000008410225556762376074_);" d="M603.78,1101.38
				c-0.15,0.15-0.26,0.29-0.41,0.44C603.38,1101.82,603.54,1101.65,603.78,1101.38z"/>
		</g>
	</g>
</g>
</svg>
