<svg width="16" height="14" viewBox="0 0 16 14" fill="none" xmlns="http://www.w3.org/2000/svg">
<path d="M11.2779 10.558C9.84502 11.8856 8.42586 12.7582 7.99925 13.0086C7.57263 12.7583 6.1535 11.8856 4.72062 10.5581L4.18873 11.1321L4.72062 10.558C2.83403 8.81011 1.34706 6.65831 1.34706 4.33471C1.34706 2.46832 2.86675 0.948624 4.73321 0.948624C5.77142 0.948624 6.71594 1.41851 7.34445 2.17982L7.34445 2.17982C7.68402 2.59114 8.31459 2.59106 8.65408 2.17977C9.28376 1.41693 10.2291 0.948624 11.2653 0.948624C13.1317 0.948624 14.6514 2.46832 14.6514 4.33471C14.6514 6.65766 13.1653 8.80929 11.2779 10.558ZM11.2779 10.558L11.8098 11.1321M11.2779 10.558L11.8098 11.1321M11.8098 11.1321C13.7493 9.33506 15.434 6.9884 15.434 4.33471C15.434 2.03609 13.5639 0.166016 11.2653 0.166016C10.2378 0.166016 9.28274 0.540445 8.54542 1.176L7.74772 13.7666C7.82593 13.81 7.91259 13.8317 7.99925 13.8317C8.08588 13.8317 8.17257 13.81 8.25078 13.7666C8.32362 13.7262 10.0549 12.758 11.8098 11.1321Z" stroke="#A9AEB9" stroke-width="1.56522"/>
</svg>
