<svg width="318" height="329" viewBox="0 0 318 329" fill="none" xmlns="http://www.w3.org/2000/svg">
<mask id="mask0_1874_147" style="mask-type:alpha" maskUnits="userSpaceOnUse" x="0" y="0" width="318" height="329">
<rect width="318" height="329" fill="#D9D9D9"/>
</mask>
<g mask="url(#mask0_1874_147)">
<g filter="url(#filter0_df_1874_147)">
<circle cx="55.8099" cy="55.8099" r="55.8099" transform="matrix(-0.418434 -0.908247 -0.908247 0.418434 341.082 90.3789)" fill="#09C4C3" fill-opacity="0.05" shape-rendering="crispEdges"/>
</g>
<path d="M261.435 185.197L344.988 146.816L307.296 74.1712M261.435 185.197L307.296 74.1712M261.435 185.197L254.083 119.884L215.53 62.5064M307.296 74.1712L265.739 68.8886M215.53 62.5064L209.367 118.085L159.507 88.8039M215.53 62.5064L159.507 88.8039M215.53 62.5064L166.31 -22.1269M215.53 62.5064L265.739 68.8886M159.507 88.8039L128.852 24.477M159.507 88.8039L166.31 -22.1269M128.852 24.477L166.31 -22.1269M128.852 24.477L77.3205 54.4457L90.1324 -54.7959M166.31 -22.1269L269.691 17.3419M166.31 -22.1269L265.739 68.8886M166.31 -22.1269L90.1324 -54.7959M166.31 -22.1269L203.991 -37.2861M166.31 -22.1269L194.026 -82.3625M166.31 -22.1269L148.639 -61.0302M269.691 17.3419L265.739 68.8886M269.691 17.3419L203.991 -37.2861M90.1324 -54.7959L148.639 -61.0302M203.991 -37.2861L194.026 -82.3625M194.026 -82.3625L148.639 -61.0302" stroke="#3BB8BC" stroke-width="2.2414" stroke-linecap="round" stroke-linejoin="round"/>
<path d="M271.876 56.9424L226.68 138.05M271.876 56.9424L272.829 98.0158M271.876 56.9424L236.199 49.8871L235.488 78.1049M226.68 138.05L217.596 44.3692M226.68 138.05L180.151 66.1461M226.68 138.05L272.829 98.0158M226.68 138.05L235.488 78.1049M217.596 44.3692L180.151 66.1461M217.596 44.3692L119.822 66.6724M217.596 44.3692L235.488 78.1049M217.596 44.3692L196.756 -29.2792M217.596 44.3692L189.697 16.9249M217.596 44.3692L145.864 20.4249M180.151 66.1461L119.822 66.6724M272.829 98.0158L311.443 138.854L283.64 167.034L272.829 98.0158ZM119.822 66.6724L145.864 20.4249M119.822 66.6724L65.3666 22.8185M119.822 66.6724L102.013 17.491L126.67 -18.2503M126.67 -18.2503L189.697 16.9249M126.67 -18.2503L196.756 -29.2792M126.67 -18.2503L145.864 20.4249M126.67 -18.2503L65.3666 22.8185M126.67 -18.2503L99.3523 -51.0198M196.756 -29.2792L189.697 16.9249M196.756 -29.2792L99.3523 -51.0198M65.3666 22.8185L99.3523 -51.0198" stroke="#3BB8BC" stroke-opacity="0.3" stroke-width="1.49426" stroke-linecap="round" stroke-linejoin="round"/>
</g>
<defs>
<filter id="filter0_df_1874_147" x="43.5474" y="-160.451" width="446.985" height="446.985" filterUnits="userSpaceOnUse" color-interpolation-filters="sRGB">
<feFlood flood-opacity="0" result="BackgroundImageFix"/>
<feColorMatrix in="SourceAlpha" type="matrix" values="0 0 0 0 0 0 0 0 0 0 0 0 0 0 0 0 0 0 127 0" result="hardAlpha"/>
<feOffset/>
<feGaussianBlur stdDeviation="83.8347"/>
<feComposite in2="hardAlpha" operator="out"/>
<feColorMatrix type="matrix" values="0 0 0 0 0.0352941 0 0 0 0 0.768627 0 0 0 0 0.764706 0 0 0 1 0"/>
<feBlend mode="normal" in2="BackgroundImageFix" result="effect1_dropShadow_1874_147"/>
<feBlend mode="normal" in="SourceGraphic" in2="effect1_dropShadow_1874_147" result="shape"/>
<feGaussianBlur stdDeviation="70.25" result="effect2_foregroundBlur_1874_147"/>
</filter>
</defs>
</svg>
