<svg width="1286" height="711" viewBox="0 0 1286 711" fill="none" xmlns="http://www.w3.org/2000/svg">
<mask id="mask0_1874_133" style="mask-type:alpha" maskUnits="userSpaceOnUse" x="0" y="0" width="1286" height="711">
<rect width="1286" height="711" fill="#D9D9D9"/>
</mask>
<g mask="url(#mask0_1874_133)">
<path d="M1166.33 507.437L1427.28 256.205L1192.77 34.9408M1166.33 507.437L1192.77 34.9408M1166.33 507.437L1054.2 274.054L836.309 110.691M1192.77 34.9408L1031.34 69.2455M836.309 110.691L885.542 325.416L662.076 281.235M836.309 110.691L662.076 281.235M836.309 110.691L543.362 -140.199M836.309 110.691L1031.34 69.2455M662.076 281.235L464.54 81.7732M662.076 281.235L543.362 -140.199M464.54 81.7732L543.362 -140.199M464.54 81.7732L311.779 260.142L217.608 -162.811M543.362 -140.199L979.123 -127.612M543.362 -140.199L1031.34 69.2455M543.362 -140.199L217.608 -162.811M543.362 -140.199L663.833 -245.503M543.362 -140.199L568.247 -400.225M543.362 -140.199L427.129 -261.957M979.123 -127.612L1031.34 69.2455M979.123 -127.612L663.833 -245.503M217.608 -162.811L427.129 -261.957M663.833 -245.503L568.247 -400.225M568.247 -400.225L427.129 -261.957" stroke="#3BB8BC" stroke-width="3.34199" stroke-linecap="round" stroke-linejoin="round"/>
<path d="M1038.66 16.8431L975.855 377.195M1038.66 16.8431L1095.53 168.377M1038.66 16.8431L896.804 36.9191L930.791 142.798M975.855 377.195L820.446 40.5477M975.855 377.195L709.442 170.16M975.855 377.195L1095.53 168.377M975.855 377.195L930.791 142.798M820.446 40.5477L709.442 170.16M820.446 40.5477L485.737 250.439M820.446 40.5477L930.791 142.798M820.446 40.5477L647.319 -206.33M820.446 40.5477L681.047 -25.31M820.446 40.5477L522.555 44.615M709.442 170.16L485.737 250.439M1095.53 168.377L1292.17 270.144L1225.35 411.054L1095.53 168.377ZM485.737 250.439L522.555 44.615M485.737 250.439L226.257 158.024M485.737 250.439L355.646 90.6323L400.953 -74.3171M400.953 -74.3171L681.047 -25.31M400.953 -74.3171L647.319 -206.33M400.953 -74.3171L522.555 44.615M400.953 -74.3171L226.257 158.024M400.953 -74.3171L256.804 -160.737M647.319 -206.33L681.047 -25.31M647.319 -206.33L256.804 -160.737M226.257 158.024L256.804 -160.737" stroke="#3BB8BC" stroke-opacity="0.3" stroke-width="2.22799" stroke-linecap="round" stroke-linejoin="round"/>
<g filter="url(#filter0_df_1874_133)">
<circle cx="219.865" cy="219.865" r="219.865" transform="matrix(-0.69437 -0.719618 -0.719618 0.69437 1070.05 -136.818)" fill="#09C4C3" fill-opacity="0.05" shape-rendering="crispEdges"/>
</g>
</g>
<defs>
<filter id="filter0_df_1874_133" x="39.3018" y="-862.234" width="1439.73" height="1439.73" filterUnits="userSpaceOnUse" color-interpolation-filters="sRGB">
<feFlood flood-opacity="0" result="BackgroundImageFix"/>
<feColorMatrix in="SourceAlpha" type="matrix" values="0 0 0 0 0 0 0 0 0 0 0 0 0 0 0 0 0 0 127 0" result="hardAlpha"/>
<feOffset/>
<feGaussianBlur stdDeviation="125"/>
<feComposite in2="hardAlpha" operator="out"/>
<feColorMatrix type="matrix" values="0 0 0 0 0.0352941 0 0 0 0 0.768627 0 0 0 0 0.764706 0 0 0 1 0"/>
<feBlend mode="normal" in2="BackgroundImageFix" result="effect1_dropShadow_1874_133"/>
<feBlend mode="normal" in="SourceGraphic" in2="effect1_dropShadow_1874_133" result="shape"/>
<feGaussianBlur stdDeviation="250" result="effect2_foregroundBlur_1874_133"/>
</filter>
</defs>
</svg>
