<svg width="699" height="569" viewBox="0 0 699 569" fill="none" xmlns="http://www.w3.org/2000/svg">
<mask id="mask0_1874_140" style="mask-type:alpha" maskUnits="userSpaceOnUse" x="0" y="0" width="699" height="569">
<rect width="699" height="569" fill="#D9D9D9"/>
</mask>
<g mask="url(#mask0_1874_140)">
<g filter="url(#filter0_df_1874_140)">
<circle cx="169.471" cy="169.471" r="169.471" transform="matrix(-0.339481 -0.940613 -0.940613 0.339481 848.877 53.8105)" fill="#09C4C3" fill-opacity="0.05" shape-rendering="crispEdges"/>
</g>
<path d="M506.493 387.526L769.222 293.032L673.989 63.4882M506.493 387.526L673.989 63.4882M506.493 387.526L501.157 188.018L399.368 4.44058M673.989 63.4882L549.623 36.7476M399.368 4.44058L366.335 171L223.063 69.5012M399.368 4.44058L223.063 69.5012M399.368 4.44058L272.362 -264.36M399.368 4.44058L549.623 36.7476M223.063 69.5012L146.967 -133.057M223.063 69.5012L272.362 -264.36M146.967 -133.057L272.362 -264.36M146.967 -133.057L-16.6997 -55.7256L50.3423 -382.921M272.362 -264.36L574.925 -118.185M272.362 -264.36L549.623 36.7476M272.362 -264.36L50.3423 -382.921M272.362 -264.36L390.291 -300.47M272.362 -264.36L371.81 -439.429M272.362 -264.36L228.97 -386.637M574.925 -118.185L549.623 36.7476M574.925 -118.185L390.291 -300.47M50.3423 -382.921L228.97 -386.637M390.291 -300.47L371.81 -439.429M371.81 -439.429L228.97 -386.637" stroke="#3BB8BC" stroke-width="3.02793" stroke-linecap="round" stroke-linejoin="round"/>
<path d="M571.285 2.19287L413.546 235.884M571.285 2.19287L563.534 126.708M571.285 2.19287L465.169 -28.389L455.711 56.8002M413.546 235.884L410.313 -49.8991M413.546 235.884L291.385 6.2936M413.546 235.884L563.534 126.708M413.546 235.884L455.711 56.8002M410.313 -49.8991L291.385 6.2936M410.313 -49.8991L108.724 -7.73119M410.313 -49.8991L455.711 56.8002M410.313 -49.8991L366.329 -278.118M410.313 -49.8991L333.009 -140.155M410.313 -49.8991L199.485 -140.912M291.385 6.2936L108.724 -7.73119M563.534 126.708L669.789 260.261L578.375 338.323L563.534 126.708ZM108.724 -7.73119L199.485 -140.912M108.724 -7.73119L-44.6798 -154.509M108.724 -7.73119L67.5739 -161.14L151.425 -262.894M151.425 -262.894L333.009 -140.155M151.425 -262.894L366.329 -278.118M151.425 -262.894L199.485 -140.912M151.425 -262.894L-44.6798 -154.509M151.425 -262.894L77.259 -369.11M366.329 -278.118L333.009 -140.155M366.329 -278.118L77.259 -369.11M-44.6798 -154.509L77.259 -369.11" stroke="#3BB8BC" stroke-opacity="0.3" stroke-width="2.01862" stroke-linecap="round" stroke-linejoin="round"/>
</g>
<defs>
<filter id="filter0_df_1874_140" x="9.40778" y="-670.594" width="1245.06" height="1245.06" filterUnits="userSpaceOnUse" color-interpolation-filters="sRGB">
<feFlood flood-opacity="0" result="BackgroundImageFix"/>
<feColorMatrix in="SourceAlpha" type="matrix" values="0 0 0 0 0 0 0 0 0 0 0 0 0 0 0 0 0 0 127 0" result="hardAlpha"/>
<feOffset/>
<feGaussianBlur stdDeviation="113.254"/>
<feComposite in2="hardAlpha" operator="out"/>
<feColorMatrix type="matrix" values="0 0 0 0 0.0352941 0 0 0 0 0.768627 0 0 0 0 0.764706 0 0 0 1 0"/>
<feBlend mode="normal" in2="BackgroundImageFix" result="effect1_dropShadow_1874_140"/>
<feBlend mode="normal" in="SourceGraphic" in2="effect1_dropShadow_1874_140" result="shape"/>
<feGaussianBlur stdDeviation="226.507" result="effect2_foregroundBlur_1874_140"/>
</filter>
</defs>
</svg>
