<svg width="48" height="46" viewBox="0 0 48 46" fill="none" xmlns="http://www.w3.org/2000/svg">
<mask id="mask0_1679_652" style="mask-type:alpha" maskUnits="userSpaceOnUse" x="0" y="0" width="48" height="46">
<rect width="48" height="46" fill="#D9D9D9"/>
</mask>
<g mask="url(#mask0_1679_652)">
<path d="M36.3238 32.2545C36.5166 32.9074 36.9457 33.4704 37.5318 33.8398C38.1179 34.2092 38.8215 34.36 39.513 34.2644C40.2044 34.1688 40.837 33.8332 41.2941 33.3196C41.7511 32.806 42.0018 32.149 42 31.4697V7.00441C42.0007 6.31118 41.7388 5.64199 41.2645 5.12462C40.7901 4.60726 40.1364 4.27799 39.4282 4.19969C38.72 4.12139 38.007 4.29955 37.4253 4.70015C36.8437 5.10074 36.4341 5.69569 36.2748 6.37139C33.8069 8.31262 31.0525 9.88138 28.1043 11.0249C26.0999 11.7994 24.0194 12.3727 21.8952 12.7358H12.6841C11.8063 12.7358 10.9372 12.904 10.1262 13.2307C9.31526 13.5574 8.57841 14.0363 7.95773 14.64C7.33705 15.2437 6.84471 15.9604 6.5088 16.7492C6.17289 17.5379 6 18.3833 6 19.2371C6 20.0909 6.17289 20.9363 6.5088 21.725C6.84471 22.5138 7.33705 23.2305 7.95773 23.8342C8.57841 24.4379 9.31526 24.9168 10.1262 25.2435C10.9372 25.5702 11.8063 25.7384 12.6841 25.7384H21.7727C23.7709 26.3985 25.8906 27.1841 28.1044 28.1336C30.9265 29.3459 33.6713 30.722 36.3238 32.2545Z" fill="white"/>
<path d="M21.473 27.4492H14.1206V29.0061C14.121 31.9277 14.8195 34.8093 16.1609 37.4234L17.3745 39.7675C17.5987 40.2047 17.9096 40.5945 18.2894 40.9143C18.6691 41.2341 19.1102 41.4777 19.5871 41.631C20.0641 41.7843 20.5675 41.8443 21.0684 41.8075C21.5693 41.7707 22.0577 41.6379 22.5056 41.4167C22.9535 41.1955 23.352 40.8903 23.6781 40.5186C24.0041 40.147 24.2514 39.7163 24.4056 39.2513C24.5598 38.7863 24.6178 38.2962 24.5764 37.8093C24.535 37.3224 24.395 36.8483 24.1644 36.4142L23.9183 35.9865C23.1372 34.4975 22.7273 32.8506 22.7218 31.1789V27.8769C22.3173 27.723 21.8952 27.586 21.473 27.4492Z" fill="white"/>
</g>
</svg>
