<svg width="30" height="30" viewBox="0 0 30 30" fill="none" xmlns="http://www.w3.org/2000/svg">
<path d="M20 16.125V21.375C20 25.75 18.25 27.5 13.875 27.5H8.625C4.25 27.5 2.5 25.75 2.5 21.375V16.125C2.5 11.75 4.25 10 8.625 10H13.875C18.25 10 20 11.75 20 16.125Z" fill="white"/>
<path d="M21.3752 2.5H16.1252C12.2713 2.5 10.4639 3.86761 10.0873 7.17376C10.0086 7.86544 10.5814 8.4375 11.2775 8.4375H13.8752C19.1252 8.4375 21.5627 10.875 21.5627 16.125V18.7226C21.5627 19.4187 22.1347 19.9916 22.8265 19.9129C26.1326 19.5362 27.5002 17.7289 27.5002 13.875V8.625C27.5002 4.25 25.7502 2.5 21.3752 2.5Z" fill="white"/>
</svg>
