<svg width="21" height="31" viewBox="0 0 21 31" fill="none" xmlns="http://www.w3.org/2000/svg">
<path d="M10.4279 15.3825C12.5584 15.3825 14.4759 14.53 15.8706 13.1351C17.2651 11.7402 18.1174 9.80291 18.1174 7.6912C18.1174 5.56011 17.2651 3.64216 15.8706 2.24729C14.4759 0.852428 12.5584 0 10.4279 0C8.29724 0 6.37971 0.852428 4.98514 2.24729C3.5905 3.64216 2.73828 5.56011 2.73828 7.6912C2.73828 9.82229 3.5905 11.7402 4.98514 13.1351C6.37971 14.5106 8.29724 15.3825 10.4279 15.3825ZM7.96799 5.21141C8.60711 4.57207 9.47879 4.18462 10.4279 4.18462C11.3963 4.18462 12.2679 4.57207 12.8877 5.21141C13.5269 5.85075 13.9143 6.72253 13.9143 7.67182C13.9143 8.62111 13.5269 9.51226 12.8877 10.1322C12.2485 10.7716 11.3769 11.159 10.4279 11.159C9.45941 11.159 8.58774 10.7716 7.96799 10.1322C7.32879 9.49297 6.94142 8.62111 6.94142 7.67182C6.94142 6.72253 7.32879 5.85075 7.96799 5.21141Z" fill="white"/>
<path d="M20.7744 18.4814L18.5082 15.401C18.3726 15.2267 18.1402 15.2073 17.9659 15.3429C15.8353 17.164 13.2204 18.3264 10.4119 18.3264C7.60334 18.3264 4.98858 17.1446 2.85795 15.3429C2.70297 15.2073 2.45121 15.2267 2.3156 15.401L0.0688244 18.4814C-0.0474102 18.6364 -0.00866486 18.8494 0.126942 18.9657C2.0251 20.5156 4.23313 21.5424 6.53811 22.0848L1.77326 30.4735C1.65711 30.7059 1.83138 30.9966 2.10259 30.9966H6.7705C6.90611 30.9966 7.04171 30.9191 7.09975 30.7834L10.4313 23.3441L13.7628 30.7834C13.8209 30.9191 13.9565 30.9966 14.092 30.9966H18.76C19.0311 30.9966 19.2055 30.7059 19.0699 30.4735L14.3051 22.0848C16.61 21.5424 18.7987 20.5156 20.6969 18.9657C20.8519 18.8494 20.8713 18.6364 20.7744 18.4814Z" fill="white"/>
</svg>
