<svg width="22" height="22" viewBox="0 0 22 22" fill="none" xmlns="http://www.w3.org/2000/svg">
<mask id="mask0_1794_766" style="mask-type:alpha" maskUnits="userSpaceOnUse" x="0" y="0" width="22" height="22">
<rect width="22" height="22" fill="#D9D9D9"/>
</mask>
<g mask="url(#mask0_1794_766)">
<path fill-rule="evenodd" clip-rule="evenodd" d="M13.3263 5.3307C11.3559 6.14509 7.41795 7.83069 1.51239 10.3875C0.553413 10.7664 0.0510614 11.1372 0.0053297 11.4997C-0.0719571 12.1123 0.700077 12.3535 1.75139 12.682C1.89439 12.7267 2.04257 12.773 2.19447 12.8221C3.2288 13.1562 4.62016 13.5471 5.34347 13.5626C5.99958 13.5767 6.73187 13.3079 7.54035 12.7562C13.0581 9.05498 15.9064 7.18419 16.0852 7.14386C16.2114 7.11541 16.3862 7.07963 16.5046 7.18425C16.6231 7.28887 16.6115 7.487 16.5989 7.54016C16.5224 7.86415 13.4919 10.6639 11.9236 12.1128C11.4347 12.5645 11.0879 12.8849 11.017 12.958C10.8582 13.1219 10.6963 13.277 10.5408 13.426C9.57985 14.3465 8.85925 15.0368 10.5807 16.1641C11.4079 16.7058 12.0699 17.1538 12.7303 17.6007C13.4515 18.0887 14.1708 18.5755 15.1015 19.1818C15.3387 19.3362 15.5651 19.4967 15.7857 19.6529C16.625 20.2475 17.3791 20.7817 18.3107 20.6966C18.852 20.6471 19.4111 20.1413 19.6951 18.6327C20.3662 15.0676 21.6854 7.34296 21.9902 4.15984C22.0169 3.88096 21.9833 3.52405 21.9563 3.36737C21.9294 3.21069 21.873 2.98746 21.668 2.82221C21.4253 2.6265 21.0506 2.58523 20.883 2.58802C20.1211 2.6015 18.9521 3.00542 13.3263 5.3307Z" fill="white"/>
</g>
</svg>
