<svg width="22" height="22" viewBox="0 0 22 22" fill="none" xmlns="http://www.w3.org/2000/svg">
<path fill-rule="evenodd" clip-rule="evenodd" d="M0 10.56C0 5.58067 0 3.09467 1.54 1.54C3.102 0 5.588 0 10.56 0H11.44C16.4193 0 18.9053 0 20.46 1.54C22 3.102 22 5.588 22 10.56V11.44C22 16.4193 22 18.9053 20.46 20.46C18.898 22 16.412 22 11.44 22H10.56C5.58067 22 3.09467 22 1.54 20.46C0 18.898 0 16.412 0 11.44V10.56ZM3.71067 6.69531C3.828 12.4153 6.688 15.8473 11.704 15.8473H11.9973V12.5766C13.838 12.76 15.2313 14.1093 15.7887 15.8473H18.392C18.125 14.8597 17.6516 13.9399 17.0032 13.1486C16.3547 12.3573 15.5459 11.7125 14.63 11.2566C15.4507 10.7569 16.1595 10.0932 16.7122 9.3071C17.2649 8.52101 17.6495 7.62941 17.842 6.68798H15.4807C14.9673 8.50664 13.442 10.1566 11.9973 10.3106V6.69531H9.62867V13.0313C8.162 12.6646 6.314 10.89 6.23334 6.69531H3.71067Z" fill="white"/>
</svg>
