<svg width="22" height="22" viewBox="0 0 22 22" fill="none" xmlns="http://www.w3.org/2000/svg">
<path fill-rule="evenodd" clip-rule="evenodd" d="M18.7 3.1625C16.6375 1.1 13.8875 0 11 0C4.95 0 0 4.95 0 11C0 12.925 0.550013 14.85 1.51251 16.5L0 22L5.77502 20.4875C7.42501 21.3125 9.2125 21.8625 11 21.8625C17.05 21.8625 22 16.9125 22 10.8625C22 7.975 20.7625 5.225 18.7 3.1625ZM6.32501 18.8375C7.70001 19.6625 9.35 20.075 11 20.075C16.0875 20.075 20.075 15.95 20.075 11.1375C20.075 8.6625 19.25 6.4625 17.4625 4.675C15.675 3.025 13.475 2.0625 11 2.0625C6.05 2.0625 1.92499 6.1875 1.92499 11.1375C1.92499 12.7875 2.3375 14.4375 3.29999 15.95L3.57501 16.3625L2.61249 19.6625L6.04999 18.7L6.32501 18.8375ZM15.95 13.2C15.675 13.0625 14.3 12.375 14.025 12.375C13.75 12.2375 13.6125 12.2375 13.475 12.5125C13.4062 12.65 13.2344 12.8562 13.0625 13.0625C12.8906 13.2688 12.7188 13.475 12.65 13.6125C12.5125 13.75 12.375 13.75 12.1 13.75C12.0571 13.7285 12.0007 13.7037 11.932 13.6735C11.5607 13.5099 10.8283 13.1872 9.90002 12.375C9.07502 11.6875 8.52501 10.725 8.38751 10.45C8.25001 10.175 8.38752 10.0375 8.52502 9.9L8.9375 9.4875C9.00625 9.41876 9.04063 9.35 9.07501 9.28125C9.10939 9.2125 9.14376 9.14374 9.21252 9.075C9.30418 8.98333 9.27362 8.89167 9.24306 8.8C9.22779 8.75417 9.21252 8.70834 9.21252 8.6625C9.21252 8.525 8.6625 7.15 8.38751 6.6C8.25001 6.1875 7.97501 6.1875 7.83752 6.1875H7.28748C7.14999 6.1875 6.87498 6.1875 6.59998 6.4625C6.32499 6.7375 5.63751 7.425 5.63751 8.8C5.63751 9.94089 6.30014 10.9871 6.60433 11.4674C6.66674 11.566 6.71408 11.6407 6.73749 11.6875C6.75451 11.7045 6.7968 11.7637 6.86307 11.8563C7.3322 12.5124 9.00284 14.8486 11.4125 15.8125C13.354 16.6119 13.9675 16.5577 14.4348 16.5163C14.5301 16.5079 14.6193 16.5 14.7125 16.5C15.2625 16.5 16.3625 15.8125 16.5 15.2625C16.775 14.575 16.775 14.025 16.6375 14.025C16.5214 13.4446 16.3073 13.3542 16.0779 13.2573C16.0357 13.2395 15.9928 13.2214 15.95 13.2Z" fill="white"/>
</svg>
