<svg xmlns="http://www.w3.org/2000/svg" width="230" height="67" fill="none"><path fill="#43B7B7" d="M66.852 30.606v-.22a30.251 30.251 0 0 0-5.52-17.456A30.465 30.465 0 0 0 46.736 1.808a30.611 30.611 0 0 0-18.366-.744 30.496 30.496 0 0 0-15.457 9.905 10.37 10.37 0 0 0-7.384.851A10.296 10.296 0 0 0 .63 17.387a10.239 10.239 0 0 0 .127 7.4 10.3 10.3 0 0 0 5.085 5.398v.195a30.33 30.33 0 0 0 6.206 18.33A30.56 30.56 0 0 0 28.1 59.609a8.412 8.412 0 0 0 2.81 5.294A8.484 8.484 0 0 0 36.546 67a8.482 8.482 0 0 0 5.61-2.16 8.41 8.41 0 0 0 2.75-5.326 30.659 30.659 0 0 0 10.81-5.707 30.501 30.501 0 0 0 7.7-9.465c.418.078.843.119 1.269.12a7.148 7.148 0 0 0 4.645-1.701 7.07 7.07 0 0 0 1.428-9.133 7.124 7.124 0 0 0-3.905-3.027m-30.36 22.49a5.767 5.767 0 0 1 3.195.962 5.728 5.728 0 0 1 2.12 2.567 5.699 5.699 0 0 1-1.243 6.239 5.773 5.773 0 0 1-6.265 1.243 5.743 5.743 0 0 1-2.58-2.108 5.704 5.704 0 0 1 .712-7.225 5.761 5.761 0 0 1 4.061-1.678Zm28.192-11.313a4.452 4.452 0 0 1-2.466-.742 4.422 4.422 0 0 1-1.637-1.981 4.399 4.399 0 0 1 .958-4.816 4.455 4.455 0 0 1 4.836-.96c.811.334 1.505.9 1.992 1.627.488.727.748 1.58.748 2.455a4.417 4.417 0 0 1-1.3 3.118 4.457 4.457 0 0 1-3.131 1.299ZM54.049 22.825a15.065 15.065 0 0 0-4.442-10.66 15.201 15.201 0 0 0-10.709-4.423H28.02L42.3 31.806l2.38-1.279-11.904-20.1h6.14c1.635 0 3.254.32 4.765.944a12.458 12.458 0 0 1 4.04 2.687 12.393 12.393 0 0 1 2.7 4.023 12.35 12.35 0 0 1 0 9.489 12.394 12.394 0 0 1-2.7 4.022 12.46 12.46 0 0 1-4.04 2.688c-1.51.623-3.13.943-4.766.943h-8.006v2.685h7.99c2.168 0 4.31-.468 6.278-1.374l8.99 15.094a27.743 27.743 0 0 1-9.477 5.175 8.422 8.422 0 0 0-3.032-4.55 8.486 8.486 0 0 0-10.377.054 8.42 8.42 0 0 0-2.985 4.58 28.03 28.03 0 0 1-9.756-5.264L34.647 23.93l-2.327-1.37L16.508 49.76a27.378 27.378 0 0 1-7.932-18.705c.577.104 1.163.156 1.75.158a10.353 10.353 0 0 0 6.275-2.104 10.274 10.274 0 0 0 3.7-5.467c.597-2.178.457-4.49-.397-6.58a10.29 10.29 0 0 0-4.332-4.986A27.8 27.8 0 0 1 29.696 3.53a27.897 27.897 0 0 1 16.5.954A27.762 27.762 0 0 1 59.23 14.599a27.57 27.57 0 0 1 4.956 15.697 7.151 7.151 0 0 0-4.066 1.654 7.098 7.098 0 0 0-2.323 3.712 7.072 7.072 0 0 0 .303 4.362 7.11 7.11 0 0 0 2.812 3.36 27.908 27.908 0 0 1-4.69 6.37L47.55 35.202a15.054 15.054 0 0 0 4.8-5.389 14.978 14.978 0 0 0 1.731-6.993m-36.119-1.895a7.579 7.579 0 0 1-1.284 4.224 7.63 7.63 0 0 1-3.426 2.803 7.668 7.668 0 0 1-8.324-1.645 7.57 7.57 0 0 1-1.658-8.285 7.61 7.61 0 0 1 2.813-3.413 7.66 7.66 0 0 1 4.243-1.281 7.664 7.664 0 0 1 5.395 2.228 7.596 7.596 0 0 1 2.241 5.369Z"/><path fill="#fff" d="M82.479 45.947a2.808 2.808 0 0 1 .438-1.591c.302-.475.74-.85 1.258-1.074a2.841 2.841 0 0 1 3.117.575 2.813 2.813 0 0 1 .625 3.093 2.82 2.82 0 0 1-1.06 1.27 2.838 2.838 0 0 1-1.591.46 2.655 2.655 0 0 1-2-.753 2.632 2.632 0 0 1-.787-1.98Zm.867 0c-.014.527.176 1.04.529 1.432a1.804 1.804 0 0 0 1.412.564 1.769 1.769 0 0 0 1.401-.574 2.257 2.257 0 0 0 0-2.838 2.036 2.036 0 0 0-2.813 0c-.351.388-.54.895-.53 1.416ZM93.357 43.336v.737h-1.978v4.501h-.867v-4.501h-1.989v-.737h4.834ZM98.772 48.575h-1.015l-1.872-2.28a1.1 1.1 0 0 1-.265.032h-.37v2.248h-.867v-5.239h.867v2.222h.434l1.364-1.832a.914.914 0 0 1 .772-.39h.825v.737h-.857l-1.29 1.727 2.274 2.775ZM99.887 43.336h.867v.769l-.138.6h.27c.115-.421.369-.792.719-1.053.408-.287.898-.43 1.397-.41a2.347 2.347 0 0 1 1.813.768 3.106 3.106 0 0 1 0 3.911 2.33 2.33 0 0 1-1.813.769 2.318 2.318 0 0 1-1.407-.405 1.974 1.974 0 0 1-.725-1.053h-.243l.138.59v2.69h-.868l-.01-7.176Zm.867 2.632a1.885 1.885 0 0 0 .555 1.485c.391.35.902.539 1.428.526a1.912 1.912 0 0 0 1.375-.526 1.968 1.968 0 0 0 .529-1.485 1.976 1.976 0 0 0-.529-1.49 1.909 1.909 0 0 0-1.375-.526 2.059 2.059 0 0 0-1.428.495 1.9 1.9 0 0 0-.555 1.495M108.789 44.82c1.509 0 2.261.621 2.258 1.864-.004 1.242-.756 1.865-2.258 1.869h-1.957v-5.238h.867v1.505h1.09Zm-1.09 2.996h.984c.389.024.778-.048 1.132-.21.243-.143.359-.448.359-.922 0-.474-.116-.774-.359-.916a2.353 2.353 0 0 0-1.132-.21h-.984v2.258Zm4.088-4.502h.857v5.239h-.857v-5.238ZM118.714 43.336v.737h-1.977v4.501h-.868v-4.501h-1.988v-.737h4.833ZM124.779 48.574h-.856v-4.49l.137-.495h-.243l-2.338 4.985h-1.745v-5.238h.868v4.48l-.138.51h.243l2.338-4.99h1.734v5.238ZM125.913 45.874a2.622 2.622 0 0 1 .703-1.948 2.505 2.505 0 0 1 1.851-.706 2.42 2.42 0 0 1 1.787.674 2.55 2.55 0 0 1 .666 1.874v.337h-4.161c.007.485.176.954.481 1.332a1.689 1.689 0 0 0 1.354.527c.376.01.746-.1 1.057-.31a1.53 1.53 0 0 0 .561-.917h.867a3.094 3.094 0 0 1-.248.658c-.125.22-.274.425-.445.61a2.112 2.112 0 0 1-.751.49 2.957 2.957 0 0 1-1.057.185 2.506 2.506 0 0 1-2.01-.785 3.011 3.011 0 0 1-.671-2.01m.846-.422h3.315a1.468 1.468 0 0 0-.423-1.08 1.578 1.578 0 0 0-1.184-.426 1.762 1.762 0 0 0-1.238.432 1.415 1.415 0 0 0-.47 1.053M139.778 43.336h.857v5.238h-.857v-2.258h-2.962v2.258h-.867v-5.238h.867v2.243h2.962v-2.243ZM141.87 45.947a2.741 2.741 0 0 1 .768-2.032 2.77 2.77 0 0 1 2.006-.852 2.788 2.788 0 0 1 2.005.852 2.766 2.766 0 0 1 .768 2.032 2.741 2.741 0 0 1-.768 2.032 2.772 2.772 0 0 1-2.005.852 2.791 2.791 0 0 1-2.006-.852 2.765 2.765 0 0 1-.768-2.032Zm.867 0c-.013.527.176 1.04.529 1.432a1.8 1.8 0 0 0 1.407.563 1.773 1.773 0 0 0 1.406-.574 2.257 2.257 0 0 0 0-2.837 2.034 2.034 0 0 0-2.813 0c-.351.388-.54.894-.529 1.416ZM148.625 48.574v-5.238h1.904a3.507 3.507 0 0 1 1.586.273 1.213 1.213 0 0 1 .233 1.806 1.226 1.226 0 0 1-.714.28v.252c.941 0 1.407.431 1.407 1.242 0 .922-.698 1.385-2.116 1.385h-2.3Zm.846-3.07h1.058c.335.024.671-.021.989-.131.179-.084.269-.3.269-.648a.556.556 0 0 0-.285-.568 2.482 2.482 0 0 0-.973-.137h-1.058v1.484Zm0 2.385h1.449c.332.022.664-.03.973-.152a.682.682 0 0 0 .286-.653.8.8 0 0 0-.052-.393.791.791 0 0 0-.239-.318 1.893 1.893 0 0 0-.968-.184h-1.449v1.7ZM156.222 44.82c1.502 0 2.253.621 2.253 1.864 0 1.242-.751 1.865-2.253 1.869h-1.956v-5.238h.867v1.505h1.089Zm-1.089 2.996h.984c.388.023.777-.05 1.131-.21.238-.143.36-.448.36-.922a.991.991 0 0 0-.36-.916 2.377 2.377 0 0 0-1.131-.21h-.984v2.258Zm4.082-4.502h.857v5.239h-.857v-5.238ZM161.311 48.574l1.983-2.5v-.253l-1.983-2.485h1.025l1.603 2.106 1.597-2.106h1.026l-1.978 2.485v.253l1.978 2.5h-1.026l-1.597-2.121-1.603 2.121h-1.025ZM171.301 48.574v-5.238h3.675v.737h-2.803v4.501h-.872ZM175.409 45.947a2.759 2.759 0 0 1 1.683-2.662 2.79 2.79 0 0 1 3.096.63 2.766 2.766 0 0 1 .768 2.032 2.741 2.741 0 0 1-.768 2.032 2.772 2.772 0 0 1-2.005.852 2.791 2.791 0 0 1-2.006-.852 2.765 2.765 0 0 1-.768-2.032Zm.867 0c-.013.527.176 1.04.529 1.432a1.8 1.8 0 0 0 1.407.563 1.747 1.747 0 0 0 1.401-.574 2.257 2.257 0 0 0 0-2.837 1.78 1.78 0 0 0-1.401-.563 1.81 1.81 0 0 0-1.407.563c-.351.388-.54.894-.529 1.416ZM182.164 43.336h.867v.769l-.137.6h.243c.115-.42.368-.791.719-1.053.41-.289.905-.433 1.407-.41a2.333 2.333 0 0 1 1.814.768 3.11 3.11 0 0 1 0 3.912 2.324 2.324 0 0 1-1.814.768 2.3 2.3 0 0 1-1.401-.405c-.354-.26-.61-.63-.725-1.053h-.243l.137.59v2.69h-.867v-7.176Zm.867 2.633a1.88 1.88 0 0 0 .556 1.484c.389.35.898.539 1.422.527a1.906 1.906 0 0 0 1.375-.527 1.945 1.945 0 0 0 .529-1.484 1.96 1.96 0 0 0-.529-1.49 1.897 1.897 0 0 0-1.375-.527 2.05 2.05 0 0 0-1.422.495 1.902 1.902 0 0 0-.556 1.495M194.15 48.574h-.856v-4.49l.137-.495h-.243l-2.337 4.985h-1.746v-5.238h.868v4.48l-.138.51h.244l2.337-4.99h1.734v5.238ZM195.389 46.527h.846c-.044.407.069.815.317 1.142a1.518 1.518 0 0 0 1.111.31c.331.032.664-.052.941-.236a.936.936 0 0 0 .275-.742.863.863 0 0 0-.227-.659 1.062 1.062 0 0 0-.714-.205h-.709v-.684h.709a.907.907 0 0 0 .65-.19.79.79 0 0 0 .185-.568.709.709 0 0 0-.248-.58 1.526 1.526 0 0 0-.905-.2c-.354-.039-.71.049-1.004.248a1.075 1.075 0 0 0-.26.806h-.846a1.607 1.607 0 0 1 .529-1.285 2.399 2.399 0 0 1 1.587-.453 2.446 2.446 0 0 1 1.475.384 1.171 1.171 0 0 1 .529.985c0 .626-.354.984-1.058 1.053v.242c.772.116 1.164.526 1.164 1.19a1.374 1.374 0 0 1-.529 1.147c-.445.31-.982.46-1.523.427-1.507 0-2.258-.721-2.258-2.153M200.936 45.947a2.76 2.76 0 0 1 1.684-2.662 2.78 2.78 0 0 1 3.688 1.568c.132.35.192.721.176 1.094a2.76 2.76 0 0 1-1.684 2.662 2.783 2.783 0 0 1-3.688-1.568 2.76 2.76 0 0 1-.176-1.094Zm.868 0a2.06 2.06 0 0 0 .528 1.432 1.81 1.81 0 0 0 1.407.563 1.754 1.754 0 0 0 1.401-.574 2.235 2.235 0 0 0 0-2.837 1.771 1.771 0 0 0-1.401-.563 1.813 1.813 0 0 0-1.407.563 2.04 2.04 0 0 0-.528 1.416ZM211.518 43.336h.857v5.238h-.857v-2.258h-2.961v2.258h-.868v-5.238h.868v2.243h2.961v-2.243ZM218.452 43.336v.737h-1.978v4.501h-.867v-4.501h-1.994v-.737h4.839ZM218.815 45.947a2.759 2.759 0 0 1 1.683-2.662 2.79 2.79 0 0 1 3.096.63 2.75 2.75 0 0 1 .769 2.032 2.76 2.76 0 0 1-1.684 2.662 2.783 2.783 0 0 1-3.689-1.568 2.76 2.76 0 0 1-.175-1.094Zm.867 0c-.013.527.176 1.04.529 1.432a1.81 1.81 0 0 0 1.407.563 1.77 1.77 0 0 0 1.407-.574c.324-.402.502-.902.502-1.418 0-.516-.178-1.017-.502-1.42a2.039 2.039 0 0 0-2.814 0c-.351.389-.54.895-.529 1.417ZM225.584 48.574v-5.238h1.904a3.507 3.507 0 0 1 1.586.273 1.213 1.213 0 0 1 .233 1.806 1.226 1.226 0 0 1-.714.28v.252c.941 0 1.407.431 1.407 1.242 0 .922-.698 1.385-2.116 1.385h-2.3Zm.846-3.07h1.058c.335.024.671-.021.989-.131.179-.084.269-.3.269-.648a.556.556 0 0 0-.285-.568 2.482 2.482 0 0 0-.973-.137h-1.058v1.484Zm0 2.385h1.449c.332.022.664-.03.973-.152a.682.682 0 0 0 .286-.653.78.78 0 0 0-.275-.684 1.908 1.908 0 0 0-.968-.185h-1.465v1.674ZM82.478 16.734h10.704a7.55 7.55 0 0 1 5.362 1.98 6.691 6.691 0 0 1 2.116 5.111 6.49 6.49 0 0 1-2.116 5.049 7.694 7.694 0 0 1-5.362 1.911h-6.573v4.033h-4.104l-.026-18.084Zm4.104 3.727v6.602h6.436a3.76 3.76 0 0 0 2.575-.853 3.005 3.005 0 0 0 .968-2.385 3.21 3.21 0 0 0-.968-2.448 3.6 3.6 0 0 0-2.575-.916h-6.436ZM103.451 16.734h10.704a7.572 7.572 0 0 1 5.367 1.98 6.67 6.67 0 0 1 2.115 5.112c0 2.747-1.17 4.751-3.511 6.011l2.787 4.97h-4.463l-2.116-4.022h-6.779v4.033h-4.104V16.734Zm4.104 3.727v6.602h6.436a3.76 3.76 0 0 0 2.575-.853 2.995 2.995 0 0 0 .968-2.385 3.213 3.213 0 0 0-.968-2.448 3.6 3.6 0 0 0-2.575-.916h-6.436ZM131.585 16.734h6.663l7.711 18.084h-4.353l-1.184-2.748h-11.169l-1.185 2.748h-4.394l7.911-18.084Zm2.56 3.628L130.76 28.5h8.075l-3.278-8.14h-1.412ZM148.588 16.734h3.871l10.862 12.156V16.734h4.072v18.074h-3.903L152.623 22.62v12.188h-4.035V16.734ZM177.927 16.734h6.663l7.716 18.084h-4.331l-1.185-2.748H175.6l-1.205 2.748H170l7.927-18.084Zm2.565 3.628-3.385 8.139h8.076l-3.284-8.14h-1.407ZM208.486 16.734h-4.103v18.069h4.103V16.734ZM211.117 16.734h18.869v3.664h-7.383v14.41H218.5v-14.41h-7.383v-3.664Z"/></svg>